/* XPM */
static char *result[] = {
/* columns rows colors chars-per-pixel */
"64 64 101 2 ",
"   c #323232",
".  c #393632",
"X  c #3C3935",
"o  c #373838",
"O  c #3B3C3C",
"+  c #443E2D",
"@  c #423B32",
"#  c #49422E",
"$  c #51452E",
"%  c #4D4232",
"&  c #534431",
"*  c #5B4931",
"=  c #765831",
"-  c #7C5D31",
";  c #7D6520",
":  c #7C6029",
">  c #3F3F40",
",  c #3F4040",
"<  c #434445",
"1  c #464748",
"2  c #474949",
"3  c #4B4C4C",
"4  c #56544B",
"5  c #4E4F50",
"6  c #4F5151",
"7  c #535555",
"8  c #575959",
"9  c #5A5C5C",
"0  c #5D5F60",
"q  c #5E6161",
"w  c #626565",
"e  c #646768",
"r  c #66696A",
"t  c #696D6D",
"y  c #6C6F70",
"u  c #6E7272",
"i  c #727576",
"p  c #767A7B",
"a  c #797D7E",
"s  c #856A1F",
"d  c #95751C",
"f  c #A37F18",
"g  c #815E31",
"h  c #926E26",
"j  c #946F28",
"k  c #997522",
"l  c #846131",
"z  c #8C6531",
"x  c #946931",
"c  c #9B6D31",
"v  c #A37130",
"b  c #AA7630",
"n  c #B67C30",
"m  c #A68117",
"M  c #A58118",
"N  c #BF8130",
"B  c #BE8932",
"V  c #CD9C0F",
"C  c #DF9E1C",
"Z  c #FCBC04",
"A  c #F6B50C",
"S  c #FAB908",
"D  c #F4AF13",
"F  c #CD8A31",
"G  c #DC9230",
"H  c #E0952E",
"J  c #E79A2D",
"K  c #E59730",
"L  c #E7A021",
"P  c #EAA024",
"I  c #E3B55A",
"U  c #7B7F80",
"Y  c #7D8283",
"T  c #808586",
"R  c #828788",
"E  c #858A8B",
"W  c #898E8F",
"Q  c #8B8F90",
"!  c #8C9293",
"~  c #909697",
"^  c #919798",
"/  c #93999A",
"(  c #999E9F",
")  c #9EA4A5",
"_  c #A0A6A6",
"`  c #A4AAAB",
"'  c #A7AEB0",
"]  c #A9AFB0",
"[  c #ACB3B4",
"{  c #B1B7B9",
"}  c #B5BCBE",
"|  c #B8BFC1",
" . c #BBC3C4",
".. c #C0C7C9",
"X. c #C3CACC",
"o. c #C7CFD1",
"O. c #C8CFD1",
"+. c #CBD3D5",
"@. c #CED6D8",
"#. c #D0D8DA",
"$. c None",
/* pixels */
"$.$.$.$.$.$.$.$.$.$.$.$.$.$.$.$.$.$.$.$.$.$.$.$.$.$.$.$.$.$.$.$.$.$.$.$.$.$.$.$.$.$.$.$.$.$.$.$.$.$.$.$.$.$.$.$.$.$.$.$.$.$.$.$.",
"$.$.$.$.$.$.$.$.$.$.$.$.$.$.$.$.$.$.$.$.$.$.$.$.$.$.$.$.$.$.$.$.$.$.$.$.$.$.$.$.$.$.$.$.$.$.$.$.$.$.$.$.$.$.$.$.$.$.$.$.$.$.$.$.",
"$.$.$.$.$.$.$.$.$.$.$.$.$.$.$.$.$.$.$.$.$.$.$.$.$.$.$.$.                  $.$.$.$.$.$.$.$.$.$.$.$.$.$.$.$.$.$.$.$.$.$.$.$.$.$.$.",
"$.$.$.$.$.$.$.$.$.$.$.$.$.$.$.$.$.$.$.$.$.$.$.$.$.                              $.$.$.$.$.$.$.$.$.$.$.$.$.$.$.$.$.$.$.$.$.$.$.$.",
"$.$.$.$.$.$.$.$.$.$.$.$.$.$.$.$.$.$.$.$.$.$.        o 9 E `  .X.@.o. .` W w o       $.$.$.$.$.$.$.$.$.$.$.$.$.$.$.$.$.$.$.$.$.$.",
"$.$.$.$.$.$.$.$.$.$.$.$.$.$.$.$.$.$.$.        o q / O.#.#.@.#.#.@.#.#.#.#.#.+.( 7       $.$.$.$.$.$.$.$.$.$.$.$.$.$.$.$.$.$.$.$.",
"$.$.$.$.$.$.$.$.$.$.$.$.$.$.$.$.          2 i ) } +.@.@.#.#.#.#.@.#.#.#.#.#.#.#.#.` 3     $.$.$.$.$.$.$.$.$.$.$.$.$.$.$.$.$.$.$.",
"$.$.$.$.$.$.$.$.$.$.$.$.$.$.        < r E / / / ^ / ` +.#.#.#.#.#.#.#.#.#.#.#.#.#.@.@.Y       $.$.$.$.$.$.$.$.$.$.$.$.$.$.$.$.$.",
"$.$.$.$.$.$.$.$.$.$.$.$.$.$.        < q Y ^ ^ ^ ^ ^ ^ (  .#.#.#.#.#.#.#.#.#.#.#.#.#.#.#.` O     $.$.$.$.$.$.$.$.$.$.$.$.$.$.$.$.",
"$.$.$.$.$.$.$.$.$.$.$.$.$.$.$.$.          < i ^ ^ ( ^ / (  .#.#.#.#.#.#.#.#.#.#.#.#.#.#.#.[ O     $.$.$.$.$.$.$.$.$.$.$.$.$.$.$.",
"$.$.$.$.$.$.$.$.$.$.$.$.$.$.$.$.$.$.$.        9 / ( / / ^ ( X.#.#.#.#.#.#.#.#.#.#.#.#.#.#.#.` o   $.$.$.$.$.$.$.$.$.$.$.$.$.$.$.",
"$.$.$.$.$.$.$.$.$.$.$.$.$.$.$.$.$.$.$.$.$.$.    p ^ / / ^ ^ ) @.#.#.#.#.#.#.#.#.#.#.#.#.#.@.@.Q     $.$.$.$.$.$.$.$.$.$.$.$.$.$.",
"$.$.$.$.$.$.$.$.$.$.$.$.$.$.$.$.$.$.$.$.$.$.$.  2 / / / / / / [ #.#.#.#.#.#.#.#.#.#.#.#.#.#.#.@.8     $.$.$.$.$.$.$.$.$.$.$.$.$.",
"$.$.$.$.$.$.$.$.$.$.$.$.$.$.$.$.$.$.$.$.$.$.$.  o / / / / / / / o.#.#.#.#.#.#.#.#.#.#.#.#.#.#.#.}     $.$.$.$.$.$.$.$.$.$.$.$.$.",
"$.$.$.$.$.$.$.$.$.$.$.$.$.$.$.$.$.$.$.$.$.$.$.  o / / / / / / / ` @.#.#.#.#.#.#.#.#.#.#.#.@.#.#.@.r     $.$.$.$.$.$.$.$.$.$.$.$.",
"$.$.$.$.$.$.$.$.$.$.$.$.$.$.$.$.$.$.$.$.$.$.$.  o / / / / / / / / X.#.#.#.#.#.#.#.#.#.#.#.X.7 0 #.]     $.$.$.$.$.$.$.$.$.$.$.$.",
"$.$.$.$.$.$.$.$.$.$.$.$.$.$.$.$.$.$.$.$.$.$.$.  < ^ ^ / / / / / / ] #.#.#.#.#.#.#.#.#.@.X.5   O #.@.1   $.$.$.$.$.$.$.$.$.$.$.$.",
"$.$.$.$.$.$.$.$.$.$.$.$.$.$.$.$.$.$.$.$.$.$.$.  1 / ^ / / / / ^ / / @.#.#.#.#.#.#.#.#...3     3 #.#.i   $.$.$.$.$.$.$.$.$.$.$.$.",
"$.$.$.$.$.$.$.$.$.$.$.$.$.$.$.$.$.$.$.$.$.$.$.  2 / 3 , 8 i ! ^ / / | #.#.#.#.#.#.#.X.5   .   9 #.#.(     $.$.$.$.$.$.$.$.$.$.$.",
"$.$.$.$.$.$.$.$.$.$.$.$.$.$.$.$.$.$.$.$.$.$.$.  7 / 2         1 w U ` #.#.#.#.#.@.X.3   & h   i #.#.[     $.$.$.$.$.$.$.$.$.$.$.",
"$.$.$.$.$.$.$.$.$.$.$.$.$.$.$.$.$.$.$.$.$.$.    w / W O     .       X [ @.@.#.#.#.6   & C d   T #.#.X.    $.$.$.$.$.$.$.$.$.$.$.",
"$.$.$.$.$.$.$.$.$.$.$.$.$.$.$.$.$.$.$.$.$.$.    i / / R o   - n g & . B I 4 8 #.#.7   & m +   _ #.#.@.    $.$.$.$.$.$.$.$.$.$.$.",
"$.$.$.$.$.$.$.$.$.$.$.$.$.$.$.$.$.$.$.$.$.$.    T / / / Y o   x K K K K c   3 #.@.X.5       8 @.#.#.#.o   $.$.$.$.$.$.$.$.$.$.$.",
"$.$.$.$.$.$.$.$.$.$.$.$.$.$.$.$.$.$.$.$.$.$.    ! / / ^ ^ i     g F F j     _ #.#.#.+.Q i ~ @.#.#.#.#.O   $.$.$.$.$.$.$.$.$.$.$.",
"$.$.$.$.$.$.$.$.$.$.$.$.$.$.$.$.$.$.$.$.$.$.o 2 / / / / ^ / u             R @.#.#.#.#.#.#.#.#.#.#.#.@.1   $.$.$.$.$.$.$.$.$.$.$.",
"$.$.$.$.$.$.$.$.$.$.$.$.$.$.$.$.$.$.$.$.$.$.) ! / / / / / / ^ T 8 > O 9 ] @.#.#.#.#.#.#.#.#.#.#.#.#.#.2   $.$.$.$.$.$.$.$.$.$.$.",
"$.$.$.$.$.$.$.$.$.$.$.$.$.$.$.$.$.$.$.$.$.$.` / / / / / / / / / ^ / / ] #.#.#.#.#.#.#.#.#.#.#.#.#.#.#.3     $.$.$.$.$.$.$.$.$.$.",
"$.$.$.$.$.$.$.$.$.$.$.$.$.$.$.$.$.$.$.$.$.  7 / / / / / / / / / / / / ] #.#.#.#.#.#.#.#.#.#.#.#.#.#.#.7       $.$.$.$.$.$.$.$.$.",
"$.$.$.$.$.$.$.$.$.$.$.$.$.$.$.$.$.$.$.$.$.  < ^ / / / / / / / / / / ^ ' #.#.#.#.#.#.#.#.#.#.#.@.#.#.#.9   O       $.$.$.$.$.$.$.",
"$.$.$.$.$.$.$.$.$.$.$.$.$.$.$.$.$.$.$.$.    e / / / / / / / / / / / / ' #.#.#.#.#.#.#.#.#.#.+.9 9 #.#.e   p r o     $.$.$.$.$.$.",
"$.$.$.$.$.$.$.$.$.$.$.$.$.$.$.$.$.$.$.$.    R / / / / / 3 , q Y ^ / / ` #.#.#.#.#.#.#.#.#.#.a   o #.#.r   i ^ Y O     $.$.$.$.$.",
"$.$.$.$.$.$.$.$.$.$.$.$.$.$.$.$.$.$.$.$.  < ^ ^ / / / / 1       O w Y ` #.#.#.#.#.#.#.#.@.{ o   1 #.#.t   i / ^ ! 7       $.$.$.",
"$.$.$.$.$.$.$.$.$.$.$.$.$.$.$.$.$.$.$.    t / / / / / / p     X       2 @.#.#.#.#.#.#.#.+.3     7 @.#.y   u ^ / W i <       $.$.",
"$.$.$.$.$.$.$.$.$.$.$.$.$.$.$.$.$.$.$.  X ! / / / / / / ^ 7   = N g X   / +.8         8 a   .   w @.@.u   i ^ 1             $.$.",
"$.$.$.$.$.$.$.$.$.$.$.$.$.$.$.$.$.$.    9 ^ / / / / / / / E     F K v   1 p                 -   y #.#.y   q $.o       $.$.$.$.$.",
"$.$.$.$.$.$.$.$.$.$.$.$.$.$.$.$.$.$.    E / / / / / / 2 2 ^ w   & K G %       F J J v     l k   a #.#.e   $.$.$.$.$.$.$.$.$.$.$.",
"$.$.$.$.$.$.$.$.$.$.$.$.$.$.$.$.$.    7 / / / / / / ` <   Y ! O   v K v     g K J K K * * L ;   ^ #.#.9   $.$.$.$.$.$.$.$.$.$.$.",
"$.$.$.$.$.$.$.$.$.$.$.$.$.$.$.$.$.    R / / / / ` ..@.p   0 / i   @ G K * * J Z Z Z Z J J A +   } #.#.7   $.$.$.$.$.$.$.$.$.$.$.",
"$.$.$.$.$.$.$.$.$.$.$.$.$.$.$.$.    9 ^ / 2 2 { #.#.#.[   O ^ ^ 2   g K J J Z Z Z Z Z A D f   6 #.#.#.<   $.$.$.$.$.$.$.$.$.$.$.",
"$.$.$.$.$.$.$.$.$.$.$.$.$.$.$.$.  o ! / / 2   1 } #.#.@.1   T / T o   b J P Z Z Z Z Z Z V .   ` #.#.@.    $.$.$.$.$.$.$.$.$.$.$.",
"$.$.$.$.$.$.$.$.$.$.$.$.$.$.$.    t / / / ! 3   O [ #.#.a   w ^ / y     z H S Z Z Z Z f .   p #.#.#. .    $.$.$.$.$.$.$.$.$.$.$.",
"$.$.$.$.$.$.$.$.$.$.$.$.$.$.    1 ! / / / / ^ 7   o ) @.[   O ^ / / t     X : M M s #     i @.#.#.#.`     $.$.$.$.$.$.$.$.$.$.$.",
"$.$.$.$.$.$.$.$.$.$.$.$.$.$.  o R / / / / / ^ ^ 9     ^ @.1   Y / / / T 5             3 ) #.#.#.#.#.Q     $.$.$.$.$.$.$.$.$.$.$.",
"$.$.$.$.$.$.$.$.$.$.$.$.$.    r ^ / / / / ^ ^ ( ^ r     Y p   0 / / / / / E u y i Q [ @.#.#.#.#.#.#.i   $.$.$.$.$.$.$.$.$.$.$.$.",
"$.$.$.$.$.$.$.$.$.$.$.$.    7 ^ / / / / / / / / / / u     7   O ^ / / / / / / / X.#.#.#.#.#.#.#.#.#.Q o $.$.$.$.$.$.$.$.$.$.$.$.",
"$.$.$.$.$.$.$.$.$.$.$.    , ! / / / / / / / / / / / / p o       T / / / / / / / ) @.#.#.#.#.#.#.#.#.@.$.$.$.$.$.$.$.$.$.$.$.$.$.",
"$.$.$.$.$.$.$.$.$.$.    o Y / / / / / / / / / / / / / / Y o     9 / / / / / / / / [ #.#.#.#.#.#.#.#.O.$.$.$.$.$.$.$.$.$.$.$.$.$.",
"$.$.$.$.$.$.$.$.$.$.  o p / / / / / / / / / / / / / / / / R >   @ ( / / / / / / / / | @.#.#.#.#.#.!   $.$.$.$.$.$.$.$.$.$.$.$.$.",
"$.$.$.$.$.$.$.$.$.    u ^ / / / / / / / / / / / / / / / / / Q 1 6 / / / / / / / / / (  .#.#.#.#.#.7   $.$.$.$.$.$.$.$.$.$.$.$.$.",
"$.$.$.$.$.$.$.$.  o y / / / / / / / / / / / / / / / / / / / ^ / ^ / / / / / / / / / ^ /  .#.#.#. .    $.$.$.$.$.$.$.$.$.$.$.$.$.",
"$.$.$.$.$.$.$.    y ^ / ^ U 9 , 3 ^ / / / / / / / / / / / / / / ^ / / / / / / / / / ^ / ^  .@.#.!     $.$.$.$.$.$.$.$.$.$.$.$.$.",
"$.$.$.$.$.      u ! i 7 o         / / / / / / / / / / / / / / / / / / / / / / / / / ^ ( ^ ^ [ @.7   $.$.$.$.$.$.$.$.$.$.$.$.$.$.",
"$.$.$.$.      3 3                 / / / / / / / / / / / / / / / / / / / / / / / / / / / / / / !     $.$.$.$.$.$.$.$.$.$.$.$.$.$.",
"$.$.$.                $.$.$.$.    / / / / / / ^ T 2 2 ! / / / / / / / / / ^ / / / / / / / / / w     $.$.$.$.$.$.$.$.$.$.$.$.$.$.",
"$.$.            $.$.$.$.$.$.$.    / / / / / ^ r o     3 ^ / / / / / / / ^ Y < 2 ! ^ / / / / ^ o   $.$.$.$.$.$.$.$.$.$.$.$.$.$.$.",
"$.$.      $.$.$.$.$.$.$.$.$.$.    / / / ^ W 3           q / / / / / / ! 9       < ! / / ^ ^ i     $.$.$.$.$.$.$.$.$.$.$.$.$.$.$.",
"$.$.$.$.$.$.$.$.$.$.$.$.$.$.$.    / / ^ i o     $.$.$.    u / ^ / / u O           < W ^ ^ ^ 1   $.$.$.$.$.$.$.$.$.$.$.$.$.$.$.$.",
"$.$.$.$.$.$.$.$.$.$.$.$.$.$.$.    ^ ! 8       $.$.$.$.$.  o Y ^ E 6       $.$.$.    < W / p     $.$.$.$.$.$.$.$.$.$.$.$.$.$.$.$.",
"$.$.$.$.$.$.$.$.$.$.$.$.$.$.$.    a O     $.$.$.$.$.$.$.    o w       $.$.$.$.$.$.    < ! 1   $.$.$.$.$.$.$.$.$.$.$.$.$.$.$.$.$.",
"$.$.$.$.$.$.$.$.$.$.$.$.$.$.$.          $.$.$.$.$.$.$.$.$.          $.$.$.$.$.$.$.$.    O     $.$.$.$.$.$.$.$.$.$.$.$.$.$.$.$.$.",
"$.$.$.$.$.$.$.$.$.$.$.$.$.$.$.      $.$.$.$.$.$.$.$.$.$.$.$.    $.$.$.$.$.$.$.$.$.$.$.      $.$.$.$.$.$.$.$.$.$.$.$.$.$.$.$.$.$.",
"$.$.$.$.$.$.$.$.$.$.$.$.$.$.$.    $.$.$.$.$.$.$.$.$.$.$.$.$.$.$.$.$.$.$.$.$.$.$.$.$.$.$.    $.$.$.$.$.$.$.$.$.$.$.$.$.$.$.$.$.$.",
"$.$.$.$.$.$.$.$.$.$.$.$.$.$.$.$.$.$.$.$.$.$.$.$.$.$.$.$.$.$.$.$.$.$.$.$.$.$.$.$.$.$.$.$.$.$.$.$.$.$.$.$.$.$.$.$.$.$.$.$.$.$.$.$.",
"$.$.$.$.$.$.$.$.$.$.$.$.$.$.$.$.$.$.$.$.$.$.$.$.$.$.$.$.$.$.$.$.$.$.$.$.$.$.$.$.$.$.$.$.$.$.$.$.$.$.$.$.$.$.$.$.$.$.$.$.$.$.$.$."
};
