/* XPM */
static char *result[] = {
/* columns rows colors chars-per-pixel */
"64 64 238 2 ",
"   c black",
".  c #669D9D",
"X  c #679F9F",
"o  c #6BA1A1",
"O  c #010203",
"+  c #030306",
"@  c #06090E",
"#  c #06070D",
"$  c #040509",
"%  c #000001",
"&  c #649A9A",
"*  c #080A11",
"=  c #659C9C",
"-  c #0B0E16",
";  c #516E6E",
":  c #26333D",
">  c #0E1219",
",  c #506B6A",
"<  c #313D46",
"1  c #31414A",
"2  c #8BC1C1",
"3  c #8DC4C5",
"4  c #35474E",
"5  c #212B35",
"6  c #1D2532",
"7  c #567979",
"8  c #435A5D",
"9  c #6A9999",
"0  c #81B7B7",
"q  c #6DA5A5",
"w  c #0F141F",
"e  c #4D6667",
"r  c #609191",
"t  c #496163",
"y  c #283541",
"u  c #A67A54",
"i  c #73AAAA",
"p  c #2A3943",
"a  c #83BABB",
"s  c #090C12",
"d  c #425457",
"f  c #465E61",
"g  c #619495",
"h  c #71A7A7",
"j  c #689C9C",
"k  c #76A3A1",
"l  c #90C6C5",
"z  c #6D5545",
"x  c #88BEC0",
"c  c #7AB0B2",
"v  c #6E9A9B",
"b  c #3B4C51",
"n  c #3D5960",
"m  c #5E8B8B",
"M  c #5C8183",
"N  c #232E3A",
"B  c #364951",
"V  c #4A6E74",
"C  c #5F8D8D",
"Z  c #5B8487",
"A  c #7AACAD",
"S  c #78A8A9",
"D  c #96BDAE",
"F  c #678B89",
"G  c #506B6F",
"H  c #5A898C",
"J  c #6F9F9E",
"K  c #7BABA3",
"L  c #3D3737",
"P  c #131821",
"I  c #1A1F29",
"U  c #77AEAF",
"Y  c #3D4F55",
"T  c #547576",
"R  c #374E56",
"E  c #5F8787",
"W  c #3F5459",
"Q  c #4E737A",
"!  c #81B3B1",
"~  c #456268",
"^  c #453C3D",
"/  c #EBF24E",
"(  c #B28456",
")  c #3E5F65",
"_  c #AC7F55",
"`  c #726244",
"'  c #4F777C",
"]  c #35434A",
"[  c #624D41",
"{  c #3B484D",
"}  c #D4BA50",
"|  c #4E6F74",
" . c #66918F",
".. c #639797",
"X. c #4C6A6D",
"o. c #A9CDBA",
"O. c #557F82",
"+. c #81A59F",
"@. c #4D453F",
"#. c #6D6A56",
"$. c #679493",
"%. c #628C91",
"&. c #537273",
"*. c #7C978B",
"=. c #515239",
"-. c #E9EE44",
";. c #6E8D85",
":. c #577C7D",
">. c #2B3036",
",. c #54767D",
"<. c #729891",
"1. c #E0D54A",
"2. c #8EBAB0",
"3. c #80B0A8",
"4. c #8ABCB9",
"5. c #987350",
"6. c #92BCB2",
"7. c #727F6C",
"8. c #C7CA44",
"9. c #424C4C",
"0. c #638583",
"q. c #A0C8B7",
"w. c #554441",
"e. c #65604F",
"r. c #7B6149",
"t. c #BB9260",
"y. c #9F7653",
"u. c #727838",
"i. c #7C684C",
"p. c #696E37",
"a. c #E7ED68",
"s. c #AB8D4C",
"d. c #9CC8BE",
"f. c #E4DF48",
"g. c #62888E",
"h. c #6A9498",
"j. c #3E4A4F",
"k. c #CED446",
"l. c #3F4342",
"z. c #92936D",
"x. c #A0B386",
"c. c #EAE581",
"v. c #49514D",
"b. c #6B6B5F",
"n. c #B48D5A",
"m. c #667F7B",
"M. c #718479",
"N. c #A08055",
"B. c #EBF344",
"V. c #735948",
"C. c #F0F47E",
"Z. c #E2E845",
"A. c #383122",
"S. c #D1AA53",
"D. c #5D807B",
"F. c #4D5E5D",
"G. c #92C3BE",
"H. c #97A578",
"J. c #93AE9F",
"K. c #8EA58A",
"L. c #9C945C",
"P. c #96C9C4",
"I. c #D3C77C",
"U. c #BEAE68",
"Y. c #86987E",
"T. c #ADAC43",
"R. c #ADA270",
"E. c #C09B51",
"W. c #DCD77B",
"Q. c #615947",
"!. c #71A2A1",
"~. c #7DA297",
"^. c #C2A84C",
"/. c #C0BA68",
"(. c #F7F9A1",
"). c #C5B254",
"_. c #667771",
"`. c #6A5147",
"'. c #646836",
"]. c #C19B66",
"[. c #A88256",
"{. c #27210F",
"}. c #100C06",
"|. c #292626",
" X c #DECC4C",
".X c #586257",
"XX c #C7C96D",
"oX c #7F7C65",
"OX c #CAC055",
"+X c #6B6F4D",
"@X c #4B5653",
"#X c #8DB5A7",
"$X c #92A76B",
"%X c #5B6A62",
"&X c #928B5C",
"*X c #414434",
"=X c #9D894E",
"-X c #667065",
";X c #5B7772",
":X c #B3BB88",
">X c #7A7B3A",
",X c #8A6650",
"<X c #C6BD4C",
"1X c #749489",
"2X c #B8AF75",
"3X c #7E8D7B",
"4X c #D5DC41",
"5X c #D0D38B",
"6X c #55584B",
"7X c #868050",
"8X c #6F9685",
"9X c #BA9F4D",
"0X c #B8AA52",
"qX c #85714A",
"wX c #655D3B",
"eX c #C9AC64",
"rX c #B29E4E",
"tX c #F6F9AF",
"yX c #878C3A",
"uX c #8A923A",
"iX c #FBFCDD",
"pX c #FEFFF2",
"aX c #474819",
"sX c #3D4227",
"dX c #A2C49E",
"fX c #809566",
"gX c #9A9F3D",
"hX c #898962",
"jX c #BAB945",
"kX c #626F58",
"lX c #E6DB67",
"zX c #A0AC48",
"xX c #5D6535",
"cX c #F9FBCD",
"vX c #DDE355",
"bX c #F2F68E",
"nX c #009D9F",
"mX c #669FA1",
/* pixels */
"                                                                                                                                ",
"                                                                                                                                ",
"                                                                                                                                ",
"                                                                                                                                ",
"                                                                                                                                ",
"                                                                                                                                ",
"                                                                                                                                ",
"                                                                                                                                ",
"                                                                                                                                ",
"                                                                                                                                ",
"                                                                                                                                ",
"                                                        O # * - - s # +                                                         ",
"                                              % s P I p 1 1 W :.T X.R : 5 A.|.s O                                               ",
"                                          % - : Z | Z U i & m = . . & M m hXx.Q N - %                                           ",
"                                      O O w n o 2 j J h q o 9 & o i i X i M $.x o n w O O                                       ",
"                                    * 6 6 : 7 h 2 +.R.J.a U C 9 a 3 x a h.,.h 2 h 7 : 6 6 *                                     ",
"                                $ w p H n 1 ; $.D dXI.7.j X & r J 0 A A ~ M 0 2.$.; 1 n H p w $                                 ",
"                                : ' ~ *.#.d ~ Z .  .%XT h o o h o & $.! F 7.Y.9 Z W b ~ & ~ ' :                                 ",
"                            % w R .., :X/.;Xh c J e 8 , h 0 ! k G &.S c ;XrXc.J.c A D.M g G ..R w %                             ",
"                            > B 8 ; b kXQ.t k P.4.g.p e j U 0 2.*.T o . e s.c.x.x A ; 8 t Y ; 8 B >                             ",
"                        % * N e W j.#.6Xp T j 3.S ,.1 ; ... X X & X.... ' l.+X<.i j 7 1 < ] { d e N * %                         ",
"                      % P 1 { 1 M ~.5X&Xv._.g H j S S  .D.C & . m W E h h.v J %.H r ; f n h.A ,.< { 1 P                         ",
"                      > b , ] B A ! H.#.R.U.e.R E a l G.4.<.~ :., p X.S G.q.6. .R 1 R Z c 3 l S B p e b >                       ",
"                    O >.t Y 4 , 9 0 6.XX(.W.e.f 7 j 3.D o.J.b G G ,.g.0.F J . m e b.oX+.x a U 9 ; ] b F.>.O                     ",
"                    - : < 5 4 , m X J $XT.s.l.f :.g = . X T Y k a l d.<.X.& 1XM.@XjXc.:XJ o X r , 4 ^ L.< -                     ",
"                  $ 5 f ] < f E O.Q g g d F.p 8 C X . . = &.b Z X q !.Q ~ O.7X2X=.} c.k.D.g Q O.E f 9.#.t 5 #                   ",
"                % I j.-X@Xd F 3 a g.v S 7 B N | H r = = M &Xz.E g q q ,.%.S M.x.G Q.L.fXv v g.a 3 F Y b , b I +                 ",
"                s Y b.XX=X; A 3 3 3 3 3 ! t 4 v x S i o M z.H.t W v 0 6.4.c q c v 4 t ! 3 3 3 l l A X.4 e d 4 s %               ",
"              % > 8 +XOXqXQ q U 0 d.o.6.0.t 1 ; J 4.o.o.q.! v | 1 7 j o j = . C ; 1 t 0.6.o.o.q.! q m y y ] 8 > +               ",
"            % + P { < v.d O.= = o K K  ., t p t Z j K K K o g , 9.e H X . . . Z e 1 f ,  .K K 1XY.9 Z R < < { P $ O             ",
"            + * 6 ] : X.C %.h o . = . g e < L e._.;.;.*.*.M.b.N.[.e.-X_.m.0.; %X#.@.< e g 9 0.e.W.K.%.C , l.9.6 * $             ",
"            % - : p 1 , &.k x x 0 h = C 8 : [ n.n.i.r.t.].i.qXeX].i.i.t.[.` r.t.n.Q.: 8 m.R.U.#.$X~.!.&..XU.oXN - +             ",
"            + - : n E &.7.L.z.v c h 7 , , f @.u u z V._ ( V.z _ y.z z ( u z `._ y.@.f , v.eX(.W.8XM ; , e K..XN > $ %           ",
"          O # w 8 v 3 3.5XC.8.v.3X3Xn Y f y ^ u [.z z E.rX` z _ ^.` ` ^.N.z ` ( u ^ y f { 5.).zX9.t 7 h.0 2 9 8 P @ +           ",
"          + * 5 7 q a ;.8.lX9X@./.7XV k F W 5 L L 5 6 =.p.'.'.wXu.p.p.u.*X6 >.L L 5 W F +.+.#Xv 1 :.4.d.d.a q 7 5 * $           ",
"          $ * p r . X r 8Xz.6X4 7.m.2.D F , < w.^ `.^ uXZ.Z.a.a.vXa.a.Z.uXL w.^ w.< , F D q.0 9 Y &.!.K k o . r p * # %         ",
"        + # - y r o . . = $.b.j.r X o . & T < `.,Xy.r.yXB.C.pXpXtXa./ B.yX` r.,XV.1 T & . o j ;.9.4 O.= = . o r y - # $ %       ",
"        $ @ w B m 0 U q h K.I.=.Q X = . = 7 4 z u ( =Xu.-.bXiXiXcX(./ -.p.T.n.u z j.7.9 . = ;.0X2Xm.%.i q U 0 m B w @ # %       ",
"        + s 6 ; & i 2 G.3 q.x.l.Q o q X :.W 6 w.u u 0X>X-./ / C.tXC./ 4X=.<Xt._ w.=.I.Y.j q F.9X/.~.l 3 G.2 i & ; 6 s # %       ",
"      % # - y 7 . X k <.+.3.C Z a x 2 x S %.~ ^ y.N.<XxX4XB.-.-./ / B.k.=.OXN.( ^ d H.#Xx 2 h.M.;.m 3.+.<.k X . 7 y - @ +       ",
"        $ s : y ) ' & & & ..E D P.l 2 2 2 0 | >.5.].} u.k.f.1.1.f.1.f.k.p.).u 5.>.V c 2 2 2 l P.D E ..& & & ' ) y : s # O       ",
"        + @ s * > P n & . V W *.D 2.k 9 9 r ; 4 r.t.^.u.8.1.1.} S.} -.T.'.E.( r.4 ;  .9 9 k 2.D *.W V . & n P > * s @ $ %       ",
"        % + $ @ @ # - 5 : I 5 | X X X X g V f W V.( u wX8.f. XS.S.}  XgX@._ _ [ 4 B V r X X X X | N 6 : 5 - # @ @ @ $ O         ",
"            + @ @ @ @ # # # s 6 ) V ' ) 4 w > I ^ y.5.i.8.Z.^.s.s.E.} >X[ 5.u @.P > w N ) O.V ) 5 > @ # # # @ @ @ $ %           ",
"            % $ + + # # # @ @ @ @ s - # @ @ # - I L [ [ sXaX{.}.}.{.A.P I |.[ |.@ @ @ # @ > s * @ @ @ @ @ + + + $ O             ",
"                    % + O + + # @ @ @ @ @ @ @ s s s > s O               + @ s @ @ @ @ @ @ @ @ @ @ $ + $ + %                     ",
"                              + # @ @ # # @ @ @ @ @ # %                   + @ @ @ @ @ # $ @ $ $ $ %                             ",
"                                % + O % % $ $ @ @ @ +                       $ @ @ # $ O   O % %                                 ",
"                                            O # @ $ %                       O @ @ $ %                                           ",
"                                          % + $ @ O                           $ # O %                                           ",
"                                          + $ # $                             O # $ $                                           ",
"                                        % $ + $ %                               + $ $ O                                         ",
"                                        % O % %                                   % O %                                         ",
"                                                                                                                                ",
"                                                                                                                                ",
"                                                                                                                                ",
"                                                                                                                                ",
"                                                                                                                                ",
"                                                                                                                                ",
"                                                                                                                                ",
"                                                                                                                                ",
"                                                                                                                                ",
"                                                                                                                                ",
"                                                                                                                                "
};
