/* XPM */
static char *result[] = {
/* columns rows colors chars-per-pixel */
"64 64 180 2 ",
"   c #CD8E01",
".  c #D19600",
"X  c #D39D10",
"o  c #E3AD0F",
"O  c #E6B507",
"+  c #E6B50D",
"@  c #E7B90D",
"#  c #E9BD0E",
"$  c #E6B611",
"%  c #E7B913",
"&  c #E9BE14",
"*  c #E7B618",
"=  c #E7B91D",
"-  c #E9BD1B",
";  c #D7A52A",
":  c #EABD26",
">  c #E9BF3F",
",  c #EAC417",
"<  c #EBC51C",
"1  c #ECC91F",
"2  c #EBC423",
"3  c #EDC925",
"4  c #ECC72C",
"5  c #EDC92A",
"6  c #EDC733",
"7  c #EECB32",
"8  c #EDC43C",
"9  c #EFCB3D",
"0  c #C79C4A",
"q  c #C99E4D",
"w  c #D08457",
"e  c #D18558",
"r  c #D38A5E",
"t  c #CA9F50",
"y  c #CAA04F",
"u  c #DBB34A",
"i  c #CCA353",
"p  c #CEA65B",
"a  c #CFA858",
"s  c #D0A75E",
"d  c #D1AB5C",
"f  c #DEB859",
"g  c #DAB357",
"h  c #E1BA5F",
"j  c #D58E63",
"k  c #D9976E",
"l  c #D3AE61",
"z  c #D4AD6A",
"x  c #D6B364",
"c  c #D8B567",
"v  c #D6B36D",
"b  c #D9B769",
"n  c #DBBA6C",
"m  c #DFA67E",
"M  c #D7B572",
"N  c #D8B171",
"B  c #DCBC74",
"V  c #DCB678",
"C  c #DDBA7B",
"Z  c #EFCF44",
"A  c #EFC94D",
"S  c #F0CE43",
"D  c #F2CF4F",
"F  c #F1D144",
"G  c #F2D44C",
"H  c #ECC654",
"J  c #ECC65A",
"K  c #EDCA5E",
"L  c #F1CE54",
"P  c #F2D553",
"I  c #F3D853",
"U  c #F2D35A",
"Y  c #F4DA5C",
"T  c #DFC07B",
"R  c #ECC661",
"E  c #EDC861",
"W  c #ECC769",
"Q  c #EECD6D",
"!  c #F2D364",
"~  c #F6DE64",
"^  c #F5DC6B",
"/  c #F8DE6A",
"(  c #E4C577",
")  c #EECD76",
"_  c #E1C37C",
"`  c #F5DB72",
"'  c #F8DD70",
"]  c #F0D17E",
"[  c #F6DD7C",
"{  c #F6E16B",
"}  c #F8E06F",
"|  c #F7E470",
" . c #F8E575",
".. c #F7E27D",
"X. c #F9E57A",
"o. c #FAE97D",
"O. c #DEBC82",
"+. c #E0AA83",
"@. c #E3BF88",
"#. c #E3B889",
"$. c #E6B892",
"%. c #E8BB96",
"&. c #DFC383",
"*. c #DEC390",
"=. c #E2C684",
"-. c #E4C986",
";. c #E2C38C",
":. c #EACE8B",
">. c #E6CC89",
",. c #F2D583",
"<. c #F4D881",
"1. c #F1D789",
"2. c #E6C796",
"3. c #E9C796",
"4. c #E9C899",
"5. c #E9D296",
"6. c #EDD69A",
"7. c #F2D794",
"8. c #F5DE9C",
"9. c #F9E484",
"0. c #FAEB83",
"q. c #F8E28A",
"w. c #FBED89",
"e. c #F6E397",
"r. c #F9E590",
"t. c #F8E89A",
"y. c #ECC5A1",
"u. c #EFCCA9",
"i. c #F0CDAA",
"p. c #EBD4A4",
"a. c #EED9A0",
"s. c #E6D2AA",
"d. c #EBD5AA",
"f. c #EED8AD",
"g. c #F1D0A5",
"h. c #F4DFA5",
"j. c #F5D5AD",
"k. c #F4DDAC",
"l. c #EEDAB3",
"z. c #F2D4B1",
"x. c #F1DEB4",
"c. c #F8D9B4",
"v. c #F4DDBA",
"b. c #FCDEBB",
"n. c #F6E1A6",
"m. c #FBECAC",
"M. c #EFE0BD",
"N. c #F3E2BD",
"B. c #FCE1BE",
"V. c #FAEDBB",
"C. c #F2E1B5",
"Z. c #FBF0BE",
"A. c #F8DFC0",
"S. c #F5E4C3",
"D. c #FCE5C4",
"F. c #F7E8C5",
"G. c #F9EDC5",
"H. c #F6E6C8",
"J. c #FDE6CB",
"K. c #F6E9CA",
"L. c #FDEACC",
"P. c #FBF0C4",
"I. c #FBF2CB",
"U. c #FBE7D0",
"Y. c #F7ECD0",
"T. c #FEEBD3",
"R. c #F7EEDB",
"E. c #FDEEDB",
"W. c #FCF3D5",
"Q. c #F7F0DE",
"!. c #FBF2DC",
"~. c #FDF8DE",
"^. c #FEEFE0",
"/. c #FCF4E3",
"(. c #FDF8E6",
"). c #FCF7EC",
"_. c #FDF9EC",
"`. c #FEFBF5",
"'. c #FFFEFD",
"]. c None",
/* pixels */
"].].].].].].].].].].].].].].].].].].].].].].].].].].].].].].].].].].].].].].].].].].].].].].].].].].].].].].].].].].].].].].].].",
"].].].].].].].].].].].].].].].].].].].].].].].].].].].].].].].].].].].].].].].].].].].].].].].].].].].].].].].].].].].].].].].].",
"].].].].].].].].].].].].].].].].].].].].].].].].].].].].].].].].].].].].].].].].].].].].].].].].].].].].].].].].].].].].].].].].",
"].].].].].].].].].].].].].].].].].].].].].].].].].].].].].].].].].].].].].].].].].].].].].].].].].].].].].].].].].].].].].].].].",
"].].].].].].].].].].].].].].].].].].].].].].].].].].].].].].].].].].].].].].].].].].].].].].].].].].].].].].].].].].].].].].].].",
"].].].].].].].].].].].].].].].].].].].].].].].].].].].].].].].].].].].].].].].].].].].].].].].].].].].].].].].].].].].].].].].].",
"].].].].].].].].].].].].].].].].].].].].].].].].].].].].].].].].].].].].].].].].].].].].].].].].].].].].].].].].].].].].].].].].",
"].].].].].].].].].].].].].].].].].].].].].].].].].].].].].].].].].].].].].].].].].].].].].].].].].].].].].].].].].].].].].].].].",
"].].].].].].].].].].].].].].].].].].].].].].].].].].].].].].].].].].].].].].].].].].].].].].].].].].].].].].].].].].].].].].].].",
"].].].].].].].].].].].].].].].].].].].].].].].].].].].].].].].].].].].].].].].].].].].].].].].].].].].].].].].].].].].].].].].].",
"].].].].].].].].].].].].].].].].].].].].].].].].].].].].].].].].].].].].].].].].].].].].].].].].].].].].].].].].].].].].].].].].",
"].].].].].].].].].].].].].].].].].].].].].].].].].].].].].].].].].].].].].].].].].].].].].].].].].].].].].].].].].].].].].].].].",
"].].].].].].].].].].].].].].].].].].].].].].].].].].].].].].].].].].].].].].].].].].].].].].].].].].].].].].].].].].].].].].].].",
"].].].].].].].].].].].].].].].].].].].].].].].].].].].].].].].].].].].].].].].].].].].].].].].].].].].].].].].].].].].].].].].].",
"].].].].].].].].].].].].].].].].].].].].].].].].].].].].].].].].].].].].].].].].].].].].].].].].].].].].].].].].].].].].].].].].",
"].].].].].].].].].].].].].].].].].].].].].].].].].].].].].].].].].].].].].].].].].].].].].].].].].].].].].].].].].].].].].].].].",
"].].].].].].].].].].].].].].].].].].].].].].].].].].].].].].].].].].].].].].].].].].].].].].].].].].].].].].].].].].].].].].].].",
"].].].].].].].].].].].].].].].].].].].].].].].].].].].].].].].].].].].].].].].].].].].].].].].].].].].].].].].].].].].].].].].].",
"].].].].].].].].].].].].].].].].].].].].].].].].].].].].].].].].].].].].].].].].].].].].].].].].].].].].].].].].].].].].].].].].",
"].].].].].].].].].'.'.'.].].].].].].].].].].].].].].].].].].].].].].].].].].].].].].].].].].].].].].].].].].].].].].].].].].].].",
"].].].].].].].].`.V.m._.'.'.].].].].].].].].].].].].].].].].].].].].].].].].].].].].].].].].].].].].].].].].].].].].].].].].].].",
"].].].].].].].].W./ / m.W.I.(.'.!.I.L.L.L.L.L.L.J.J.J.J.J.D.L.D.J.J.D.L.J.D.L.D.L.L.L.L.L.L.L.W.].].].].].].].].].].].].].].].].",
"].].].].].].].'.P.X.o.0.0. .' V.).D.B.B.B.b.b.b.b.b.b.b.b.b.N.C.b.b.b.b.b.b.b.b.b.b.B.B.D.B.B.B.D.D.D.J.L.L.L.W.].].].].].].].].",
"].].].].].'.(.q...0.w.w.w.9.^ 9.).;.z z s i 0 0 0 0 0 0 0 0 0 0 q t i a s s s l z z v V C ;.;.2.6.g.j.c.b.b.B.D.L.T.].].].].].].",
"].].].].'.~.q.} o.w.w.w.w.0.| ^ ).2.q i y y i i i i i i i i i i i i y i y y i y y y y y y y y y 0 0 0 0 0 s C j.B.D.L.].].].].].",
"].].].]._.[ ~ X.o.0.0.o.X.| { U W.s.a a a a a a a a a a d d a a a d a d d a a a a a a a a i i a a i a i i t 0 0 @.B.D.L.].].].].",
"].].].'.P.Y }  . .| | X.....! A L.l.d l x x x x x x x x l l x x d l l l l d d x l l x a a l a d a d a a a a a i 0 C B.D.L.].].].",
"].].].`...Y { } w.{ { P./.~.~.W./.s.x x x x x b x x b x x x x b c c c c c c c c c x x x c x x x x x x l l d a a i y ;.D.L.].].].",
"].].].(.U Y Y m.~.{ I W.N.f u ( _ B n c n c b b b b n b n b n b b b n b b b b b n c n x c c c n c c c c x x x l a a i v.J.D.].].",
"].].].W.L P Y t.I.Y G P./.K.5.g g n n n n n n n n n n n n n n n n n n n n n n n B b n n b n n n b n n c n c x x d d i 2.J.G.].].",
"].].]._.L S P I I I I G P <.W.R.T n n n b n n n n n n n n n n n n n n n n n n n n n n n n n n n n n n n n b b c x d a V D.L.].].",
"].].].`.8.8 S S G G G F Z 8 A W.M.n n n n n n n n n n n n n n n n n n n M n n n n n n n n B n n n M n n n n n b x x d v J.L.].].",
"].].].].).h.! U ` S S ` I 9 6 ,.Q.&.n n ( n n n n n n n n n n n n n n B n n n n n n n n n n n n B n n n n n n n c x d M U.L.].].",
"].].].].5.H./.(.!.9 7 G.V.S 6 8 ~.>.n n b n n n n n n n n n n B n B n n n n n n n n n n B n n n n n n n n n n n b x l B L.L.].].",
"].].].]./.Q.a.6.(.6 5 V.e.7 4 : W.2.n n n n n n n B n n n n n n n n n n n n n n n B n n n n n n n n n n n n b n b c d O.L.J.].].",
"].].].'.h.,.G.!.P.4 5 S 7 5 2 J /.&.n n n n n n n n n B n n n n n n n n n n B n n n n n n n n n n B n n n n n n b x d p.L.D.].].",
"].].].'.) * - : 2 2 3 3 3 2 - 1.R.T n n n n n n n n n n n n n n n n n n n n n n n n n n n n n n n n n n n n n c b l z U.L.v.].].",
"].].].`.E % < < 1 2 1 1 1 - = Y.S.M n n n n n n n n n n n n n n n n n n n n n n n n n n B n n n n n n n n n n n b x d.T.L.].].].",
"].].].`.R + & , , , , , & $ Q R.T n n n n n n n n n n B n n n n n n n n n n B n n n n n n n n n n n n W M n n n c p.T.L.S.].].].",
"].].].'.7.o O @ # # , # + ] `.-.b n n n n n n n n n n n n n n n n n n n n b n n n n n n n n n n ( b n n n n n c l.T.L.L.].].].].",
"].].].]._.k.J H K $ O > N.Q.:._ T T B b b b b n b n n b n n b n n n n n b b b b n b n n b b b n B C C =.;.;.s.E.T.U.L.m ].].].].",
"].].].].>.C.Y.K./.W o ) W.:.x.E.~.W.E.E.T.T.F.D.S.v.C.x.x.k.f.f.a.f.f.f.x.x.C.N.B.N.B.F.U.T.!./././.^.^.!.!.E.T.L.T.+.].].].].].",
"].].].].].. X ; a./.7.S.S.k.L.T.T.T.T.T.T.T.T.T.T.T.T.T.T.T.T.T.T.T.W.T.T.T.T.T.T.T.T.T.T.T.T.T.T.T.T.T.T.T.T.L.z.].].].].].].].",
"].].].].].].].].].h x.x.].].k +.$.4.i.z.v.B.L.L.L.L.L.L.L.L.L.L.T.L.L.L.T.L.L.L.L.L.T.L.J.A.v.z.i.y.%.#.m k ].].].].].].].].].].",
"].].].].].].].].].].  ].].].].].].].].].].].].].].].].].].].e j j r e ].].].].].].].].].].].].].].].].].].].].].].].].].].].].].",
"].].].].].].].].].].].].].].].].].].].].].].].].].].].].].].].].].].].].].].].].].].].].].].].].].].].].].].].].].].].].].].].].",
"].].].].].].].].].].].].].].].].].].].].].].].].].].].].].].].].].].].].].].].].].].].].].].].].].].].].].].].].].].].].].].].].",
"].].].].].].].].].].].].].].].].].].].].].].].].].].].].].].].].].].].].].].].].].].].].].].].].].].].].].].].].].].].].].].].].",
"].].].].].].].].].].].].].].].].].].].].].].].].].].].].].].].].].].].].].].].].].].].].].].].].].].].].].].].].].].].].].].].].",
"].].].].].].].].].].].].].].].].].].].].].].].].].].].].].].].].].].].].].].].].].].].].].].].].].].].].].].].].].].].].].].].].",
"].].].].].].].].].].].].].].].].].].].].].].].].].].].].].].].].].].].].].].].].].].].].].].].].].].].].].].].].].].].].].].].].",
"].].].].].].].].].].].].].].].].].].].].].].].].].].].].].].].].].].].].].].].].].].].].].].].].].].].].].].].].].].].].].].].].",
"].].].].].].].].].].].].].].].].].].].].].].].].].].].].].].].].].].].].].].].].].].].].].].].].].].].].].].].].].].].].].].].].",
"].].].].].].].].].].].].].].].].].].].].].].].].].].].].].].].].].].].].].].].].].].].].].].].].].].].].].].].].].].].].].].].].",
"].].].].].].].].].].].].].].].].].].].].].].].].].].].].].].].].].].].].].].].].].].].].].].].].].].].].].].].].].].].].].].].].",
"].].].].].].].].].].].].].].].].].].].].].].].].].].].].].].].].].].].].].].].].].].].].].].].].].].].].].].].].].].].].].].].].",
"].].].].].].].].].].].].].].].].].].].].].].].].].].].].].].].].].].].].].].].].].].].].].].].].].].].].].].].].].].].].].].].].",
"].].].].].].].].].].].].].].].].].].].].].].].].].].].].].].].].].].].].].].].].].].].].].].].].].].].].].].].].].].].].].].].].",
"].].].].].].].].].].].].].].].].].].].].].].].].].].].].].].].].].].].].].].].].].].].].].].].].].].].].].].].].].].].].].].].].",
"].].].].].].].].].].].].].].].].].].].].].].].].].].].].].].].].].].].].].].].].].].].].].].].].].].].].].].].].].].].].].].].].",
"].].].].].].].].].].].].].].].].].].].].].].].].].].].].].].].].].].].].].].].].].].].].].].].].].].].].].].].].].].].].].].].].",
"].].].].].].].].].].].].].].].].].].].].].].].].].].].].].].].].].].].].].].].].].].].].].].].].].].].].].].].].].].].].].].].].",
"].].].].].].].].].].].].].].].].].].].].].].].].].].].].].].].].].].].].].].].].].].].].].].].].].].].].].].].].].].].].].].].].",
"].].].].].].].].].].].].].].].].].].].].].].].].].].].].].].].].].].].].].].].].].].].].].].].].].].].].].].].].].].].].].].].]."
};
