/* XPM */
static char *_8b13cc93e2b431ed19999d41f3857598kmk1niKN3j1Jd17[] = {
/* columns rows colors chars-per-pixel */
"64 64 5 1 ",
"  c None",
". c #F4F700",
"X c #F5F700",
"o c #F4F800",
"O c #F5F800",
/* pixels */
"                                                                ",
"                                                                ",
"                                                                ",
"                                                                ",
"                                                                ",
"                             XOOOO                              ",
"                        OOOOOOOOOOOOOXXX                        ",
"                      OOOOOOOOOOOOOOOOOOOO                      ",
"                    XOOOOOOOOOOOOOOOOOOOOOOXX                   ",
"                  OOOOOOOOOOOOOOOOOOOOOOOOOOOO                  ",
"                XOOOOOOOOOOOOOOOOOOOOOOOOOOOOOOX                ",
"               OOOOOOOOOOOOOOOOOOOOOOOOOOOOOOOOOO               ",
"              OOOOOOOOOOOOOOOOOOOOOOOOOOOOOOOOOOOX              ",
"             XOOOOOOOOOOX   XXOOOOOOOOOOOOOOOOOOOO              ",
"            XOOOOOOOOOX       OOOOOOOOOOOOOOOOOOOX              ",
"           XOOOOOOOOOO         XOOOOOOOOOOOOOOOOX               ",
"          XOOOOOOOOOOX          OOOOOOOOOOOOOOOX                ",
"          OOOOOOOOOOO           OOOOOOOOOOOOOOX                 ",
"         OOOOOOOOOOOO           OOOOOOOOOOOOOX                  ",
"         OOOOOOOOOOOO           OOOOOOOOOOOOX                   ",
"        XOOOOOOOOOOOOX          OOOOOOOOOOOX                    ",
"        OOOOOOOOOOOOOX         XOOOOOOOOOOX                     ",
"       XOOOOOOOOOOOOOOO       XOOOOOOOOOOX                      ",
"       OOOOOOOOOOOOOOOOX     XOOOOOOOOOOX                       ",
"      OOOOOOOOOOOOOOOOOOOOOOOOOOOOOOOOOX                        ",
"      XOOOOOOOOOOOOOOOOOOOOOOOOOOOOOOO                          ",
"      XOOOOOOOOOOOOOOOOOOOOOOOOOOOOOO                           ",
"      OOOOOOOOOOOOOOOOOOOOOOOOOOOOOO               XOOOX        ",
"      OOOOOOOOOOOOOOOOOOOOOOOOOOOOO              XOOOOOOX       ",
"     XOOOOOOOOOOOOOOOOOOOOOOOOOOOO               OOOOOOOOX      ",
"     OOOOOOOOOOOOOOOOOOOOOOOOOOOO               OOOOOOOOOO      ",
"     XOOOOOOOOOOOOOOOOOOOOOOOOOO                XOOOOOOOOOO     ",
"     XOOOOOOOOOOOOOOOOOOOOOOOOOOX               XOOOOOOOOOO     ",
"     OOOOOOOOOOOOOOOOOOOOOOOOOOOOX              OOOOOOOOOO      ",
"     XOOOOOOOOOOOOOOOOOOOOOOOOOOOOX              OOOOOOOOX      ",
"      OOOOOOOOOOOOOOOOOOOOOOOOOOOOOX             XOOOOOOX       ",
"      OOOOOOOOOOOOOOOOOOOOOOOOOOOOOOX              XOOOX        ",
"      XOOOOOOOOOOOOOOOOOOOOOOOOOOOOOOX                          ",
"      XOOOOOOOOOOOOOOOOOOOOOOOOOOOOOOOX                         ",
"      XOOOOOOOOOOOOOOOOOOOOOOOOOOOOOOOOX                        ",
"       OOOOOOOOOOOOOOOOOOOOOOOOOOOOOOOOOX                       ",
"       XOOOOOOOOOOOOOOOOOOOOOOOOOOOOOOOOOX                      ",
"        OOOOOOOOOOOOOOOOOOOOOOOOOOOOOOOOOOX                     ",
"        XOOOOOOOOOOOOOOOOOOOOOOOOOOOOOOOOOOX                    ",
"         OOOOOOOOOOOOOOOOOOOOOOOOOOOOOOOOOOOX                   ",
"         OOOOOOOOOOOOOOOOOOOOOOOOOOOOOOOOOOOOX                  ",
"          OOOOOOOOOOOOOOOOOOOOOOOOOOOOOOOOOOOOX                 ",
"          OOOOOOOOOOOOOOOOOOOOOOOOOOOOOOOOOOOOOX                ",
"           XOOOOOOOOOOOOOOOOOOOOOOOOOOOOOOOOOOOOX               ",
"            XOOOOOOOOOOOOOOOOOOOOOOOOOOOOOOOOOOOOX              ",
"             XOOOOOOOOOOOOOOOOOOOOOOOOOOOOOOOOOOOO              ",
"              OOOOOOOOOOOOOOOOOOOOOOOOOOOOOOOOOOOX              ",
"               OOOOOOOOOOOOOOOOOOOOOOOOOOOOOOOOOX               ",
"                XOOOOOOOOOOOOOOOOOOOOOOOOOOOOOOX                ",
"                  OOOOOOOOOOOOOOOOOOOOOOOOOOOO                  ",
"                    OOOOOOOOOOOOOOOOOOOOOOOXX                   ",
"                      OOOOOOOOOOOOOOOOOOOO                      ",
"                        OXXOOOOOOOOOOXXX                        ",
"                             XXOOO                              ",
"                                                                ",
"                                                                ",
"                                                                ",
"                                                                ",
"                                                                "
};
