/* XPM */
static char *result[] = {
/* columns rows colors chars-per-pixel */
"64 64 249 2 ",
"   c black",
".  c #232008",
"X  c #776C17",
"o  c #B2A228",
"O  c #D6C433",
"+  c #DCC936",
"@  c #D3C033",
"#  c #A09123",
"$  c #645B13",
"%  c #111004",
"&  c #0E0C03",
"*  c #595213",
"=  c #D8C62E",
"-  c #E7D549",
";  c #ECDB55",
":  c #F1E05E",
">  c #F3E161",
",  c #F0DF5C",
"<  c #EBDA52",
"1  c #E4D243",
"2  c #C2B129",
"3  c #433D0E",
"4  c #020200",
"5  c #161404",
"6  c #978A1F",
"7  c #DDCB3B",
"8  c #EEDC56",
"9  c #F4E463",
"0  c #F6E668",
"q  c #F8E86C",
"w  c #F9E96D",
"e  c #F9E86D",
"r  c #F8E86B",
"t  c #F6E567",
"y  c #F3E260",
"u  c #EBD94F",
"i  c #D9C737",
"p  c #726816",
"a  c #040401",
"s  c #0E0C02",
"d  c #97891F",
"f  c #E6D446",
"g  c #F1DF5A",
"h  c #F7E666",
"j  c #F9E86B",
"k  c #FAE96C",
"l  c #FAEA6D",
"z  c #FAE96D",
"x  c #F8E86A",
"c  c #F6E563",
"v  c #EFDE57",
"b  c #E2D03E",
"n  c #6C6214",
"m  c #595011",
"M  c #DDCA38",
"N  c #F0DF58",
"B  c #F6E562",
"V  c #F8E768",
"C  c #FAE869",
"Z  c #FAE96A",
"A  c #F9E96A",
"S  c #FAE969",
"D  c #F9E869",
"F  c #F8E767",
"G  c #F5E461",
"H  c #EEDC53",
"J  c #D3BF2E",
"K  c #292508",
"L  c #221F06",
"P  c #D7C42A",
"I  c #ECDA4E",
"U  c #F5E45E",
"Y  c #F7E663",
"T  c #F8E764",
"R  c #F7E664",
"E  c #F7E662",
"W  c #F4E25D",
"Q  c #E8D647",
"!  c #AF9E1E",
"~  c #0F0E03",
"^  c #766B12",
"/  c #E5D23F",
"(  c #F1DF55",
")  c #F6E45D",
"_  c #F7E55F",
"`  c #F7E55E",
"'  c #F7E45E",
"]  c #F5E35D",
"[  c #EFDD52",
"{  c #DDC934",
"}  c #363109",
"|  c #B09F20",
" . c #E9D646",
".. c #F2E056",
"X. c #F5E35B",
"o. c #F6E45B",
"O. c #F5E35A",
"+. c #F5E359",
"@. c #F1DE54",
"#. c #E4D13D",
"$. c #807416",
"%. c #D3C129",
"&. c #ECD94A",
"*. c #F3E053",
"=. c #F4E256",
"-. c #F5E255",
";. c #F4E254",
":. c #F4E153",
">. c #F4E154",
",. c #F2DF52",
"<. c #E9D543",
"1. c #A4941B",
"2. c #D9C52A",
"3. c #EDD948",
"4. c #F2DF4F",
"5. c #F2E050",
"6. c #F3DF4F",
"7. c #F2DF4E",
"8. c #F2DF4D",
"9. c #F3DF4E",
"0. c #F1DE4E",
"q. c #EAD643",
"w. c #AB9A1C",
"e. c #D9C528",
"r. c #EDD946",
"t. c #F1DE4B",
"y. c #F2DF4B",
"u. c #F2DE4A",
"i. c #F2DE49",
"p. c #F2DD48",
"a. c #F2DE48",
"s. c #F2DF4C",
"d. c #F1DD4B",
"f. c #E9D540",
"g. c #AA9A1B",
"h. c #D0BC22",
"j. c #EAD640",
"k. c #EFDC47",
"l. c #F1DD46",
"z. c #F1DD45",
"x. c #F0DC43",
"c. c #F0DC42",
"v. c #F1DD47",
"b. c #EFDB46",
"n. c #E6D23A",
"m. c #A19117",
"M. c #9D8D17",
"N. c #E5D138",
"B. c #EDD942",
"V. c #F0DB42",
"C. c #F0DB40",
"Z. c #F0DA3E",
"A. c #EFDA3D",
"S. c #EFD93D",
"D. c #EFDA3E",
"F. c #F0DB43",
"G. c #ECD841",
"H. c #E0CC30",
"J. c #695E0F",
"K. c #62580C",
"L. c #DFCB2D",
"P. c #EAD63D",
"I. c #EEDA3F",
"U. c #EED93B",
"Y. c #EED939",
"T. c #EDD938",
"R. c #EDD838",
"E. c #EED938",
"W. c #EED93C",
"Q. c #EEDA40",
"!. c #E8D53B",
"~. c #D3BF25",
"^. c #2B2705",
"/. c #110F02",
"(. c #BFAB19",
"). c #E4D033",
"_. c #ECD73B",
"`. c #EDD83A",
"'. c #EDD835",
"]. c #EDD734",
"[. c #EDD733",
"{. c #EDD735",
"}. c #EDD836",
"|. c #EDD839",
" X c #EDD93B",
".X c #EBD63A",
"XX c #E0CC2E",
"oX c #8E8011",
"OX c #050501",
"+X c #413A07",
"@X c #D4C023",
"#X c #E7D235",
"$X c #EBD638",
"%X c #ECD736",
"&X c #ECD733",
"*X c #ECD632",
"=X c #ECD631",
"-X c #EBD530",
";X c #ECD630",
":X c #ECD732",
">X c #ECD734",
",X c #ECD737",
"<X c #E5D033",
"1X c #C9B51C",
"2X c #131102",
"3X c #020100",
"4X c #70650C",
"5X c #DCC827",
"6X c #E6D131",
"7X c #EBD534",
"8X c #EBD633",
"9X c #EBD630",
"0X c #EBD52F",
"qX c #EAD434",
"wX c #E5D030",
"eX c #D8C321",
"rX c #3D3705",
"tX c #040400",
"yX c #6A5F0A",
"uX c #CFBA1C",
"iX c #E1CD2B",
"pX c #E7D130",
"aX c #E8D230",
"sX c #E9D430",
"dX c #EAD430",
"fX c #E8D231",
"gX c #E6D12F",
"hX c #DFCA28",
"jX c #C9B419",
"kX c #242003",
"lX c #AB9A11",
"zX c #DFCA27",
"xX c #E3CD2A",
"cX c #E4CE2C",
"vX c #E2CD2A",
"bX c #DEC925",
"nX c #D1BC1D",
"mX c #8D7F0D",
"MX c #121001",
"NX c #0F0D01",
"BX c #352F05",
"VX c #7E700B",
"CX c #A19110",
"ZX c #A99813",
"AX c #A99713",
"SX c #9F8E0E",
"DX c #675C09",
"FX c #2B2603",
"GX c #050400",
/* pixels */
"                                                                                                                                ",
"                                                                                                                                ",
"                                                                                                                                ",
"                                                                                                                                ",
"                                                                                                                                ",
"                                                                                                                                ",
"                                                                                                                                ",
"                                                                                                                                ",
"                                                                                                                                ",
"                                                                                                                                ",
"                                                                                                                                ",
"                                                                                                                                ",
"                                                                                                                                ",
"                                                                                                                                ",
"                                                                                                                                ",
"                                                                                                                                ",
"                                                                                                                                ",
"                                                                                                                                ",
"                                                                                                                                ",
"                                                                                                                                ",
"                                                                                                                                ",
"                                                                                                                                ",
"                                                      . X o O + + @ # $ %                                                       ",
"                                                  & * = - ; : > > , < 1 2 3 4                                                   ",
"                                                5 6 7 8 9 0 q w e r t y u i p a                                                 ",
"                                              s d f g h j k l z z l k x c v b n                                                 ",
"                                              m M N B V C Z Z A A Z S D F G H J K                                               ",
"                                            L P I U Y T T T T T T T T T R E W Q ! ~                                             ",
"                                            ^ / ( ) _ _ ` ` ` ' ' ` ` ` _ _ ] [ { }                                             ",
"                                            |  ...X.o.O.+.+.O.O.O.O.+.+.O.o.O.@.#.$.                                            ",
"                                            %.&.*.=.-.;.:.>.:.:.:.>.:.:.;.-.=.,.<.1.                                            ",
"                                            2.3.4.5.6.7.8.8.8.8.8.8.8.8.9.6.5.0.q.w.                                            ",
"                                            e.r.t.y.u.i.p.p.a.a.a.a.p.a.i.u.s.d.f.g.                                            ",
"                                            h.j.k.l.z.x.c.c.c.c.c.c.c.c.x.z.v.b.n.m.                                            ",
"                                            M.N.B.V.C.Z.A.A.A.S.S.A.A.A.D.C.F.G.H.J.                                            ",
"                                            K.L.P.I.A.U.Y.T.R.R.R.R.E.Y.W.A.Q.!.~.^.                                            ",
"                                            /.(.)._.`.R.'.].[.[.[.[.{.}.|. X.XXXoXOX                                            ",
"                                              +X@X#X$X%X&X*X=X-X;X=X:X>X,X$X<X1X2X                                              ",
"                                              3X4X5X6X7X8X*X9X0X0X=X*X8XqXwXeXrX                                                ",
"                                                tXyXuXiXpXaXsXdXdXsXfXgXhXjXrX                                                  ",
"                                                    kXlXeXzXxXcXcXvXbXnXmXMX                                                    ",
"                                                      NXBXVXCXZXAXSXDXFXGX                                                      ",
"                                                                                                                                ",
"                                                                                                                                ",
"                                                                                                                                ",
"                                                                                                                                ",
"                                                                                                                                ",
"                                                                                                                                ",
"                                                                                                                                ",
"                                                                                                                                ",
"                                                                                                                                ",
"                                                                                                                                ",
"                                                                                                                                ",
"                                                                                                                                ",
"                                                                                                                                ",
"                                                                                                                                ",
"                                                                                                                                ",
"                                                                                                                                ",
"                                                                                                                                ",
"                                                                                                                                ",
"                                                                                                                                ",
"                                                                                                                                ",
"                                                                                                                                ",
"                                                                                                                                "
};
