/* XPM */
static char *result[] = {
/* columns rows colors chars-per-pixel */
"64 64 167 2 ",
"   c #FBB216",
".  c #FCBB16",
"X  c #FCB41B",
"o  c #FCB91B",
"O  c #FCB623",
"+  c #FCBB24",
"@  c #FCB729",
"#  c #FCBA2C",
"$  c #EAAD3F",
"%  c #FCBC34",
"&  c #FCBF39",
"*  c #FDC70E",
"=  c #EBC51F",
"-  c #FDC712",
";  c #FDC814",
":  c #FCC21A",
">  c #FDC91B",
",  c #E6C721",
"<  c #E3C925",
"1  c #EEC823",
"2  c #E5CC2D",
"3  c #ECC929",
"4  c #FDC124",
"5  c #F5C925",
"6  c #FDCB23",
"7  c #FDC42C",
"8  c #F2CA2D",
"9  c #FDCC2C",
"0  c #E6D12F",
"q  c #E5CF34",
"w  c #EDCB36",
"e  c #E8CE3A",
"r  c #FCC234",
"t  c #F3CB32",
"y  c #FDCD34",
"u  c #F6C33F",
"i  c #FCC23C",
"p  c #FDCD3B",
"a  c #E7D236",
"s  c #EBD533",
"d  c #EED837",
"f  c #E7D33E",
"g  c #E9D23B",
"h  c #EFDA3D",
"j  c #FCD036",
"k  c #FCD13A",
"l  c #D69757",
"z  c #D79959",
"x  c #D99C5B",
"c  c #ECB246",
"v  c #F1BD4A",
"b  c #E2A95B",
"n  c #EDB751",
"m  c #EFBC55",
"M  c #DBA160",
"N  c #DFA866",
"B  c #DFA869",
"V  c #E3AD63",
"C  c #EBBC6D",
"Z  c #E5B574",
"A  c #E8B975",
"S  c #E7BA7C",
"D  c #E8BD7F",
"F  c #EECE46",
"G  c #FBC343",
"H  c #F2CC45",
"J  c #FDCB44",
"K  c #F5C24A",
"L  c #F9C648",
"P  c #F7C848",
"I  c #FBCC4A",
"U  c #E7D041",
"Y  c #E9D443",
"T  c #EEDB43",
"R  c #E9D74C",
"E  c #F7D042",
"W  c #FDD344",
"Q  c #F1DC45",
"!  c #F7D14B",
"~  c #FDD44A",
"^  c #F1DE49",
"/  c #F6C653",
"(  c #FBCC53",
")  c #F2C25C",
"_  c #F6CA5D",
"`  c #FACD5B",
"'  c #ECDA51",
"]  c #FED553",
"[  c #FDD856",
"{  c #FDD25A",
"}  c #FDDA5B",
"|  c #F4E152",
" . c #F5E25A",
".. c #EFC261",
"X. c #FACF61",
"o. c #F0C369",
"O. c #F6CD6C",
"+. c #FCD365",
"@. c #FDDC63",
"#. c #FDD66B",
"$. c #FDDD6C",
"%. c #EEC671",
"&. c #F3CF74",
"*. c #F2CC7D",
"=. c #FDD773",
"-. c #FDDC74",
";. c #F3D27C",
":. c #FDDB7C",
">. c #F5E462",
",. c #F8E764",
"<. c #F9E96B",
"1. c #FDE077",
"2. c #FEE07A",
"3. c #E9BF81",
"4. c #EBC384",
"5. c #EEC980",
"6. c #EFCA8B",
"7. c #F1D185",
"8. c #FDDD82",
"9. c #F4D38C",
"0. c #E6C296",
"q. c #EFCC91",
"w. c #E7C499",
"e. c #EECF9A",
"r. c #E6D396",
"t. c #EFD091",
"y. c #E6D498",
"u. c #E8D79D",
"i. c #F2D293",
"p. c #F3D996",
"a. c #F3D79C",
"s. c #F5D99B",
"d. c #FEE482",
"f. c #FDE58D",
"g. c #FDE792",
"h. c #FDE896",
"j. c #FDE699",
"k. c #FEEA9E",
"l. c #EBCDA3",
"z. c #EDD0A6",
"x. c #EAD9A1",
"c. c #EDDEAB",
"v. c #F6DBA3",
"b. c #F8DEA6",
"n. c #F0D7AD",
"m. c #F4DDAB",
"M. c #F8DFA9",
"N. c #F4DDB2",
"B. c #F8E0A6",
"V. c #FEEBA3",
"C. c #F9E3AD",
"Z. c #FEEBAB",
"A. c #F3E3B4",
"S. c #FAE6B3",
"D. c #FDEBB4",
"F. c #F2E5B9",
"G. c #F9E6B9",
"H. c #F3E8BD",
"J. c #FDECBA",
"K. c #F7EBC4",
"L. c #FCEDC2",
"P. c #FAEECA",
"I. c #FEF1C4",
"U. c #FCF1CD",
"Y. c #FDF3D3",
"T. c #FEF6D8",
"R. c None",
/* pixels */
"R.R.R.R.R.R.R.R.R.R.R.R.R.R.R.R.R.R.R.R.R.R.R.R.R.R.R.R.R.R.R.R.R.R.R.R.R.R.R.R.R.R.R.R.R.R.R.R.R.R.R.R.R.R.R.R.R.R.R.R.R.R.R.R.",
"R.R.R.R.R.R.R.R.R.R.R.R.R.R.R.R.R.R.R.R.R.R.R.R.R.R.R.R.R.R.R.R.R.R.R.R.R.R.R.R.R.R.R.R.R.R.R.R.R.R.R.R.R.R.R.R.R.R.R.R.R.R.R.R.",
"R.R.R.R.R.R.R.R.R.R.R.R.R.R.R.R.R.R.R.R.R.R.R.R.R.R.R.R.R.R.R.R.R.R.R.R.R.R.R.R.R.R.R.R.R.R.R.R.R.R.R.R.R.R.R.R.R.R.R.R.R.R.R.R.",
"R.R.R.R.R.R.R.R.R.R.R.R.R.R.R.R.R.R.R.R.R.R.R.R.R.R.R.R.R.R.R.R.R.R.R.R.R.R.R.R.R.R.R.R.R.R.R.R.R.R.R.R.R.R.R.R.R.R.R.R.R.R.R.R.",
"R.R.R.R.R.R.R.R.R.R.R.R.R.R.R.R.R.R.R.R.R.R.R.R.R.R.R.R.R.R.R.R.R.R.R.R.R.R.R.R.R.R.R.R.R.R.R.R.R.R.R.R.R.R.R.R.R.R.R.R.R.R.R.R.",
"R.R.R.R.R.R.R.R.R.R.R.R.R.R.R.R.R.R.R.R.R.R.R.R.R.R.R.R.R.R.R.R.R.R.R.R.R.R.R.R.R.R.R.R.R.R.R.R.R.R.R.R.R.R.R.R.R.R.R.R.R.R.R.R.",
"R.R.R.R.R.R.R.R.R.R.R.R.R.R.R.R.R.R.R.R.R.R.R.R.R.R.R.R.R.R.R.R.R.R.R.R.R.R.R.R.R.R.R.R.R.R.R.R.R.R.R.R.R.R.R.R.R.R.R.R.R.R.R.R.",
"R.R.R.R.R.R.R.R.R.R.R.R.R.R.R.R.R.R.R.R.R.R.R.R.R.R.R.R.R.R.R.R.R.R.R.R.R.R.R.R.R.R.R.R.R.R.R.R.R.R.R.R.R.R.R.R.R.R.R.R.R.R.R.R.",
"R.R.R.R.R.R.R.R.R.R.R.R.R.R.R.R.R.R.R.R.R.R.R.R.R.R.R.R.R.R.R.R.R.R.R.R.R.R.R.R.R.R.R.R.R.R.R.R.R.R.R.R.R.R.R.R.R.R.R.R.R.R.R.R.",
"R.R.R.R.R.R.R.R.R.R.R.R.R.R.R.R.R.R.R.R.R.R.R.R.R.R.R.R.R.R.R.R.R.R.R.R.R.R.R.R.R.R.R.R.R.R.R.R.R.R.R.R.R.R.R.R.R.R.R.R.R.R.R.R.",
"R.R.R.R.R.R.R.R.R.R.R.R.R.R.R.R.R.R.R.R.R.R.R.R.R.R.R.R.R.R.R.R.R.R.R.R.R.R.R.R.R.R.R.R.R.R.R.R.R.R.R.R.R.R.R.R.R.R.R.R.R.R.R.R.",
"R.R.R.R.R.R.R.R.R.R.R.R.R.R.R.R.R.R.R.R.R.R.R.R.R.R.R.R.R.R.R.R.R.R.R.R.R.R.R.R.R.R.R.R.R.R.R.R.R.R.R.R.R.R.R.R.R.R.R.R.R.R.R.R.",
"R.R.R.R.R.R.R.R.R.R.R.R.R.R.R.R.R.R.r.u.x.x.u.r.R.R.R.R.R.R.R.R.R.R.R.R.R.R.R.R.R.R.R.R.R.R.R.R.R.R.R.R.R.R.R.R.R.R.R.R.R.R.R.R.",
"R.R.R.R.R.R.R.R.R.R.R.R.R.R.R.R.R.r.c.A.F.F.F.A.x.R.R.R.R.R.R.R.R.R.R.R.R.R.R.R.R.R.R.R.R.R.R.R.R.R.R.R.R.R.R.R.R.R.R.R.R.R.R.R.",
"R.R.R.R.R.R.R.R.R.R.R.R.R.R.R.R.R.c.K.P.Y.Y.Y.P.A.A.L.Z.8.:.=.=.#.+.#.+.+.+.+.+.#.8.J.I.R.R.R.R.R.R.R.R.R.R.R.R.R.R.R.R.R.R.R.R.",
"R.R.R.R.R.R.R.R.R.R.R.R.R.R.R.R.R.F.Y.Y.U.P.U.Y.K.;.G i i i & & & & & % & & & % & i +.` f.U.R.R.R.R.R.R.R.R.R.R.R.R.R.R.R.R.R.R.",
"R.R.R.R.R.R.R.R.R.R.R.R.R.R.R.R.R.H.Y.Y.P.U.U.Y.P.*.K G G G G G i G G G & & % @ @ @ # & ( 8.U.R.R.R.R.R.R.R.R.R.R.R.R.R.R.R.R.R.",
"R.R.R.R.R.R.R.R.R.R.R.R.R.R.R.R.R.H.Y.Y.Y.U.Y.Y.P.7./ ( ( ( I H F F F F I J i & @ O @ @ % G :.P.R.R.R.R.R.R.R.R.R.R.R.R.R.R.R.R.",
"R.R.R.R.R.R.R.R.R.R.R.R.R.R.R.R.R.A.T.Y.Y.Y.Y.T.P.&.{ { ] ! U ' @.>.} R e I J p r + X O @ % I Z.R.R.R.R.R.R.R.R.R.R.R.R.R.R.R.R.",
"R.R.R.R.R.R.R.R.R.R.R.R.R.R.R.R.R.R.P.T.T.T.T.Y.p./ ] ~ E Y >.<.<.<.<.<. .U W J y # O X O @ & =.L.R.R.R.R.R.R.R.R.R.R.R.R.R.R.R.",
"R.R.R.R.R.R.R.R.R.R.R.R.R.R.R.R.R.R.l.t.z.m.a.%.v G p p a  .,.,.>.,.,.,.,.' w p p r + X X @ # I I.R.R.R.R.R.R.R.R.R.R.R.R.R.R.R.",
"R.R.R.R.R.R.R.R.R.R.R.R.R.R.R.R.R.R.m.c e.*...v u p p t f  . . . . . . . . .e y p y 4 o X O # i Z.R.R.R.R.R.R.R.R.R.R.R.R.R.R.R.",
"R.R.R.R.R.R.R.R.R.R.R.R.R.R.R.R.R.R.A.K m.7._ P p p y w Y | | | | | | | | ^ e y p y 7 + X X @ & =.n.R.R.R.R.R.R.R.R.R.R.R.R.R.R.",
"R.R.R.R.R.R.R.R.R.R.R.R.R.R.R.R.R.R.D.` Z.:.{ W p j y t f ^ ^ T Q ^ ^ ^ ^ ^ g t y y y 4 X X O & +.N.R.R.R.R.R.R.R.R.R.R.R.R.R.R.",
"R.R.R.R.R.R.R.R.R.R.R.R.R.R.R.R.R.R.D.+.V.2.} W j y y 8 a T h h h h h h h T 0 8 y 9 7 4 O X O % +.N.R.R.R.R.R.R.R.R.R.R.R.R.R.R.",
"R.R.R.R.R.R.R.R.R.R.R.R.R.R.R.R.R.R.S.+.V.1.] k y 9 9 9 2 a h d d d s d h s 1 j y 9 9 4 o X O % ` N.R.R.R.R.R.R.R.R.R.R.R.R.R.R.",
"R.R.R.R.R.R.R.R.R.R.R.R.R.R.R.R.R.R.C.+.V.-.~ k 9 9 9 9 5 2 s s s s s s s < 9 9 9 9 9 4 o X O % ` A.R.R.R.R.R.R.R.R.R.R.R.R.R.R.",
"R.R.R.R.R.R.R.R.R.R.R.R.R.R.R.R.R.R.C.#.k.1.~ j 9 9 9 9 9 1 < 0 0 s s 2 < 5 9 9 9 9 6 4 o X O % ( G.R.R.R.R.R.R.R.R.R.R.R.R.R.R.",
"R.R.R.R.R.R.R.R.R.R.R.R.R.R.R.R.R.R.C.#.k.$.~ j 9 9 9 9 6 6 6 = , < = = 6 9 6 6 6 9 6 4 o   X % ( G.R.R.R.R.R.R.R.R.R.R.R.R.R.R.",
"R.R.R.R.R.R.R.R.R.R.R.R.R.R.R.R.R.z.C.#.V.$.W j 9 > > 9 6 6 6 6 6 6 6 6 6 6 6 6 6 6 4 : o   O % / J.R.R.R.R.R.R.R.R.R.R.R.R.R.R.",
"R.R.R.R.R.R.R.R.R.R.R.R.R.R.R.R.R.z.C.#.k.$.W 9 6 6 6 6 > 6 > 9 > 6 6 6 6 6 6 > 6 > 6 : o   O # ( J.R.R.R.R.R.R.R.R.R.R.R.R.R.R.",
"R.R.R.R.R.R.R.R.R.R.R.R.R.R.R.R.R.l.C.{ k.$.W 9 > > > > > 6 > > > > > > > > 6 > 6 > > . o   O % ( J.R.R.R.R.R.R.R.R.R.R.R.R.R.R.",
"R.R.R.R.R.R.R.R.R.R.R.R.R.R.R.R.R.R.C.{ k.<.W 9 > > > > > > > > > > > > > > > > > > > . .   o % ( J.R.R.R.R.R.R.R.R.R.R.R.R.R.R.",
"R.R.R.R.R.R.R.R.R.R.R.R.R.R.R.R.R.R.C.( V.<.W 9 > > ; > > ; > ; > > > > ; ; ; > > ; : : .   O % _ J.R.R.R.R.R.R.R.R.R.R.R.R.R.R.",
"R.R.R.R.R.R.R.R.R.R.R.R.R.R.R.R.R.R.Z.I Z.-.W 9 > ; ; ; ; ; ; ; ; ; ; ; ; ; ; ; ; ; - :     O % ` J.R.R.R.R.R.R.R.R.R.R.R.R.R.R.",
"R.R.R.R.R.R.R.R.R.R.R.R.R.R.R.R.R.R.S.J Z.1.~ 9 > ; - - - - * ; - - - - - - - ; - - - . .   O i _ J.R.R.R.R.R.R.R.R.R.R.R.R.R.R.",
"R.R.R.R.R.R.R.R.R.R.R.R.R.R.R.R.R.R.D.I Z.d.] 9 > - * - * ; * * * * * * - * * * * - - : + O # i O.D.R.R.R.R.R.R.R.R.R.R.R.R.R.R.",
"R.R.R.R.R.R.R.R.R.R.R.R.R.R.R.R.R.R.J._ j.g.@.k 9 ; * * * * * * * * * * * * * * ; ; 6 4 + + # i 9.J.R.R.R.R.R.R.R.R.R.R.R.R.R.R.",
"R.R.R.R.R.R.R.R.R.R.R.R.R.R.R.R.R.R.J.*.O.Z.2.~ k 6 > > ; ; ; ; ; * ; ; ; ; > > > 5 9 r # + % i s.J.R.R.R.R.R.R.R.R.R.R.R.R.R.R.",
"R.R.R.R.R.R.R.R.R.R.R.R.R.R.R.R.R.R.G.s.K Z.h.<.~ j 9 9 5 6 > 6 > 5 > 6 6 6 6 9 9 y p r # # % ) b.G.R.R.R.R.R.R.R.R.R.R.R.R.R.R.",
"R.R.R.R.R.R.R.R.R.R.R.R.R.R.R.R.R.R.l.C.o./ D.g.1.] W k k k k p j j j j k k k k W ~ I i # & v 6.S.l.R.R.R.R.R.R.R.R.R.R.R.R.R.R.",
"R.R.R.R.R.R.R.R.R.R.R.R.R.R.R.R.R.R.R.J.i.m ( D.k.d.1.} @.} [ [ } } } } } } @.@.$.$.( G & c C s.J.R.R.R.R.R.R.R.R.R.R.R.R.R.R.R.",
"R.R.R.R.R.R.R.R.R.R.R.R.R.R.R.R.R.R.R.w.C.6.n L 8.D.Z.k.h.f.f.f.f.f.f.f.f.g.h.h.f.#.G c c Z i.Z.z.R.R.R.R.R.R.R.R.R.R.R.R.R.R.R.",
"R.R.R.R.R.R.R.R.R.R.R.R.R.R.R.R.R.R.R.R.N.B.4.V c u { ` } { $.:.-.$.+.} { { { / i % c b Z i.C.G.R.R.R.R.R.R.R.R.R.R.R.R.R.R.R.R.",
"R.R.R.R.R.R.R.R.R.R.R.R.R.R.R.R.R.R.R.R.R.G.C.6.Z B M M x z l l l z z z x x l x M N Z 4.s.Z.G.R.R.R.R.R.R.R.R.R.R.R.R.R.R.R.R.R.",
"R.R.R.R.R.R.R.R.R.R.R.R.R.R.R.R.R.R.R.R.R.R.l.G.v.q.4.3.3.3.S S S S D 3.3.3.3.*.4.6.s.C.J.n.R.R.R.R.R.R.R.R.R.R.R.R.R.R.R.R.R.R.",
"R.R.R.R.R.R.R.R.R.R.R.R.R.R.R.R.R.R.R.R.R.R.R.R.0.m.G.S.S.S.C.C.m.C.C.C.C.S.S.S.G.J.A.w.R.R.R.R.R.R.R.R.R.R.R.R.R.R.R.R.R.R.R.R.",
"R.R.R.R.R.R.R.R.R.R.R.R.R.R.R.R.R.R.R.R.R.R.R.R.R.R.R.R.R.R.R.R.R.R.R.R.R.R.R.R.R.R.R.R.R.R.R.R.R.R.R.R.R.R.R.R.R.R.R.R.R.R.R.R.",
"R.R.R.R.R.R.R.R.R.R.R.R.R.R.R.R.R.R.R.R.R.R.R.R.R.R.R.R.R.R.R.R.R.R.R.R.R.R.R.R.R.R.R.R.R.R.R.R.R.R.R.R.R.R.R.R.R.R.R.R.R.R.R.R.",
"R.R.R.R.R.R.R.R.R.R.R.R.R.R.R.R.R.R.R.R.R.R.R.R.R.R.R.R.R.R.R.R.R.R.R.R.R.R.R.R.R.R.R.R.R.R.R.R.R.R.R.R.R.R.R.R.R.R.R.R.R.R.R.R.",
"R.R.R.R.R.R.R.R.R.R.R.R.R.R.R.R.R.R.R.R.R.R.R.R.R.R.R.R.R.R.R.R.R.R.R.R.R.R.R.R.R.R.R.R.R.R.R.R.R.R.R.R.R.R.R.R.R.R.R.R.R.R.R.R.",
"R.R.R.R.R.R.R.R.R.R.R.R.R.R.R.R.R.R.R.R.R.R.R.R.R.R.R.R.R.R.R.R.R.R.R.R.R.R.R.R.R.R.R.R.R.R.R.R.R.R.R.R.R.R.R.R.R.R.R.R.R.R.R.R.",
"R.R.R.R.R.R.R.R.R.R.R.R.R.R.R.R.R.R.R.R.R.R.R.R.R.R.R.R.R.R.R.R.R.R.R.R.R.R.R.R.R.R.R.R.R.R.R.R.R.R.R.R.R.R.R.R.R.R.R.R.R.R.R.R.",
"R.R.R.R.R.R.R.R.R.R.R.R.R.R.R.R.R.R.R.R.R.R.R.R.R.R.R.R.R.R.R.R.R.R.R.R.R.R.R.R.R.R.R.R.R.R.R.R.R.R.R.R.R.R.R.R.R.R.R.R.R.R.R.R.",
"R.R.R.R.R.R.R.R.R.R.R.R.R.R.R.R.R.R.R.R.R.R.R.R.R.R.R.R.R.R.R.R.R.R.R.R.R.R.R.R.R.R.R.R.R.R.R.R.R.R.R.R.R.R.R.R.R.R.R.R.R.R.R.R.",
"R.R.R.R.R.R.R.R.R.R.R.R.R.R.R.R.R.R.R.R.R.R.R.R.R.R.R.R.R.R.R.R.R.R.R.R.R.R.R.R.R.R.R.R.R.R.R.R.R.R.R.R.R.R.R.R.R.R.R.R.R.R.R.R.",
"R.R.R.R.R.R.R.R.R.R.R.R.R.R.R.R.R.R.R.R.R.R.R.R.R.R.R.R.R.R.R.R.R.R.R.R.R.R.R.R.R.R.R.R.R.R.R.R.R.R.R.R.R.R.R.R.R.R.R.R.R.R.R.R.",
"R.R.R.R.R.R.R.R.R.R.R.R.R.R.R.R.R.R.R.R.R.R.R.R.R.R.R.R.R.R.R.R.R.R.R.R.R.R.R.R.R.R.R.R.R.R.R.R.R.R.R.R.R.R.R.R.R.R.R.R.R.R.R.R.",
"R.R.R.R.R.R.R.R.R.R.R.R.R.R.R.R.R.R.R.R.R.R.R.R.R.R.R.R.R.R.R.R.R.R.R.R.R.R.R.R.R.R.R.R.R.R.R.R.R.R.R.R.R.R.R.R.R.R.R.R.R.R.R.R.",
"R.R.R.R.R.R.R.R.R.R.R.R.R.R.R.R.R.R.R.R.R.R.R.R.R.R.R.R.R.R.R.R.R.R.R.R.R.R.R.R.R.R.R.R.R.R.R.R.R.R.R.R.R.R.R.R.R.R.R.R.R.R.R.R.",
"R.R.R.R.R.R.R.R.R.R.R.R.R.R.R.R.R.R.R.R.R.R.R.R.R.R.R.R.R.R.R.R.R.R.R.R.R.R.R.R.R.R.R.R.R.R.R.R.R.R.R.R.R.R.R.R.R.R.R.R.R.R.R.R.",
"R.R.R.R.R.R.R.R.R.R.R.R.R.R.R.R.R.R.R.R.R.R.R.R.R.R.R.R.R.R.R.R.R.R.R.R.R.R.R.R.R.R.R.R.R.R.R.R.R.R.R.R.R.R.R.R.R.R.R.R.R.R.R.R.",
"R.R.R.R.R.R.R.R.R.R.R.R.R.R.R.R.R.R.R.R.R.R.R.R.R.R.R.R.R.R.R.R.R.R.R.R.R.R.R.R.R.R.R.R.R.R.R.R.R.R.R.R.R.R.R.R.R.R.R.R.R.R.R.R.",
"R.R.R.R.R.R.R.R.R.R.R.R.R.R.R.R.R.R.R.R.R.R.R.R.R.R.R.R.R.R.R.R.R.R.R.R.R.R.R.R.R.R.R.R.R.R.R.R.R.R.R.R.R.R.R.R.R.R.R.R.R.R.R.R."
};
