/* XPM */
static char *e0fd729d53e44c8cb927980282abf770hMaNb38xTyHadeFx[] = {
/* columns rows colors chars-per-pixel */
"64 64 154 2 ",
"   c None",
".  c black",
"X  c #010000",
"o  c gray1",
"O  c #060606",
"+  c gray3",
"@  c #090909",
"#  c gray4",
"$  c gray6",
"%  c #100202",
"&  c #110202",
"*  c #101010",
"=  c gray7",
"-  c #151515",
";  c #2F2F2F",
":  c gray19",
">  c #373737",
",  c gray27",
"<  c gray32",
"1  c #5A5A5A",
"2  c gray37",
"3  c gray38",
"4  c gray50",
"5  c #D41919",
"6  c #D51919",
"7  c #E00A0A",
"8  c #E00B0B",
"9  c #E00C0C",
"0  c #E00D0D",
"q  c #E00E0E",
"w  c #E00F0F",
"e  c #E01010",
"r  c #E11010",
"t  c #E11111",
"y  c #E11212",
"u  c #E11313",
"i  c #E11414",
"p  c #E11515",
"a  c #E11616",
"s  c #E11717",
"d  c #E11818",
"f  c #E21919",
"g  c #E11A1A",
"h  c #E11B1B",
"j  c #E21A1A",
"k  c #E31A1A",
"l  c #E21B1B",
"z  c #E31B1B",
"x  c #E41B1B",
"c  c #E51B1B",
"v  c #E61B1B",
"b  c #E01C1C",
"n  c #E11C1C",
"m  c #E21C1C",
"M  c #E31C1C",
"N  c #E21D1D",
"B  c #E21E1E",
"V  c #E21F1F",
"C  c #E71C1C",
"Z  c #E91C1C",
"A  c #EA1C1C",
"S  c #EB1C1C",
"D  c #EC1C1C",
"F  c #ED1C1C",
"G  c #EE1C1C",
"H  c #EF1C1C",
"J  c #EF1D1D",
"K  c #F01D1D",
"L  c #F11D1D",
"P  c #F21D1D",
"I  c #F31D1D",
"U  c #E32323",
"Y  c #E42828",
"T  c #E42A2A",
"R  c #E42F2F",
"E  c #E53333",
"W  c #E53636",
"Q  c #E53737",
"!  c #E63737",
"~  c #E63838",
"^  c #E74343",
"/  c #E84949",
"(  c #E84D4D",
")  c #E84E4E",
"_  c #E95151",
"`  c #EA5757",
"'  c #EA5858",
"]  c #EB6666",
"[  c #EB6767",
"{  c #ED7070",
"}  c #ED7272",
"|  c #EE7C7C",
" . c #8B8B8B",
".. c gray56",
"X. c gray58",
"o. c #979797",
"O. c #A4A4A4",
"+. c gray74",
"@. c #EF8484",
"#. c #F08686",
"$. c #F08787",
"%. c #F19393",
"&. c #F29B9B",
"*. c #F4A6A6",
"=. c #F6B9B9",
"-. c #F6BCBC",
";. c #F6BDBD",
":. c #CACACA",
">. c #CBCBCB",
",. c gray81",
"<. c LightGray",
"1. c gray87",
"2. c #F8C8C8",
"3. c #F8C9C9",
"4. c #FADCDC",
"5. c #E7E7E7",
"6. c gray91",
"7. c gray92",
"8. c gray93",
"9. c #EFEFEF",
"0. c #FBE3E3",
"q. c #FBE4E4",
"w. c #FCE7E7",
"e. c #FDEDED",
"r. c #FDEFEF",
"t. c #F1F1F1",
"y. c #FDF1F1",
"u. c #FDF2F2",
"i. c #FEF5F5",
"p. c #F9F9F9",
"a. c #FBFBFB",
"s. c #FCF9F9",
"d. c #FEF8F8",
"f. c #FEF9F9",
"g. c #FDFAFA",
"h. c #FEFAFA",
"j. c #FEFBFB",
"k. c #FFFBFB",
"l. c #FBFCFC",
"z. c gray99",
"x. c #FDFCFC",
"c. c #FCFDFD",
"v. c #FDFDFD",
"b. c #FEFCFC",
"n. c #FFFCFC",
"m. c #FEFDFD",
"M. c #FFFDFD",
"N. c #FCFEFE",
"B. c #FDFEFE",
"V. c #FDFFFF",
"C. c #FEFEFE",
"Z. c #FFFEFE",
"A. c #FEFFFF",
"S. c white",
/* pixels */
"                                                                                                                                ",
"                                                        k M k k k k M k                                                         ",
"                                              k k k D I I I I I D I I I I D k k k                                               ",
"                                        k k D I Z c k k k k k k k k k k k k c Z I D k k                                         ",
"                                    k c I C k k k k k k k k k k k M M k M k k k k k C I c M                                     ",
"                                k Z D k k k k k k k k k k k k k k k k k k k k k k k k k k D Z c                                 ",
"                              k I k k k k k k k k k k k k k k k k k k k k k k k k k k k k k k I k                               ",
"                          k I k k k k k k k k k k M k k k k k k k k k k k k k k k k k k k k k k k I k                           ",
"                        k D k k k M k k k k k k k k k M M k k k k k k k k k k k k k k k k k k k k k D k                         ",
"                      Z C k k k k k k k k M M k k k k k M k k k k k k k k k k k k k k k k k k k k k k C Z                       ",
"                    D k k k k k k k k k k k k k k k k k k k k k M M k k k k M k k k k k k k k k k k k k k D                     ",
"                  I k k k M k k k k k k k k k k k k k k k k k k k k k k k k M k k k k k M k k k k k k k k k I                   ",
"                D k k k k k k k k k k k k k k k k k k k k k k k k k k k k k k k M k k k k k k k k k k k k k k Z                 ",
"              k c k k k k k k k k k k k k k k k k k k M k M k k k k k k k k k k M M k k k k k k k k k k k k k c k               ",
"            M D k k k k k k k k k k k k M k k k k k k M k k k k k k k k k k k M k k k k k k k k k k k k k M k k D M             ",
"          k I k k k k k k k k k k k M M M k k k k k k k k k k k M M k k k k k k k k k k k k k k k k k k k M k k k I k           ",
"          Z k k k k k k k k k k k k k k M M k k k k k k k k k k k k k k k k k k k k M M k k k k k k k k M M k k k k Z           ",
"        k Z k M k k k k k k k k k M M k a k M M k k k k k k k k k k k k k k k k M M k a k M M k k k k k M k k k k k D k         ",
"        I k k M k k k k k k k k M a 8 k T U w w M k k k k k k k k k k k k M k M w w U T M 8 a M M k k k k k k k k k k I         ",
"      k Z k k k M k k k k k k M 6 R &.4.r.w.-.' w M M k k k k k k k k k k M M 0 ` -.w.u.4.&.R t M k k k k k k k k k k Z k       ",
"      I k k k k M k k k k k M t ( u.S.S.S.S.S.S.%.t M k k k k k k k k k k M t %.S.S.S.S.S.S.u.( 6 M k k k k k k k k k k I       ",
"    k D k k k k k k k k k M a E i.S.f.S.S.S.f.S.S.| w M k k M k k k k k M w | S.S.f.S.S.S.f.S.i.E a M k k M k k k k k k D k     ",
"    k k k k M M k k k k k M w *.S.f.S.S.S.S.S.S.S.u.T a M k M k k k k M a T u.S.S.S.S.S.S.S.f.S.*.w M k k k k k k k k k k k     ",
"    I k k k k k k k k k M k U w.S.S.S.S.8.8.S.S.f.S.] 0 M k k k k k k M w ] S.S.S.S.S.5.S.S.S.S.w.U k M k k k k k k k k k I     ",
"  k D k k k k k k k k k M a W f.S.S.S.4 = -  .S.f.S.@.8 M k k k M M M U w @.S.f.S.,.; $ , 6.S.S.f.W a M k k k k k k k k k D k   ",
"  k c k k k k k k k k k M a ~ f.S.S.+.. . . . >.S.S.$.8 M k k k k k M U 8 $.S.f.S.: . . . 3 S.S.f.~ a M k k k k k k k k k c k   ",
"  Z k k k k k k k k k k M a ~ f.l.S.X.. @ @ . O.S.S.$.8 M k k k k k k M 8 $.S.S.t.= O @ O > S.S.f.~ a M k k k k M k k k k k Z   ",
"k D k k k k k k k k k k M a ~ f.S.S.1.@ . . = 6.S.S.$.8 U k k k k k k M 8 $.S.f.S.2 . . . ..S.S.f.~ a M k k k k M k k k k k D k ",
"M Z k k k k k k k k k k M a W f.S.S.S.>.1 2 <.S.f.S.$.8 U k k k k k k M 8 $.S.f.S.a.4 < X.S.S.S.f.W a M k k k k k k k k k k D M ",
"k Z k k k k k k k k k k M k T r.S.S.S.S.S.S.S.S.S.S.{ w M k k k k k k M w { S.f.S.S.S.S.S.S.S.S.r.T k M k k k k k k k k k k Z k ",
"k c k k M k k k k k k k k M w =.S.f.S.S.S.a.S.S.S.f.W a M k k k k k k M a W S.S.S.S.a.S.a.S.f.S.=.w M k k k k k k k k k k k C k ",
"k k k k M k k k k k k k k M t / S.S.f.S.S.S.S.f.S.&.0 M k k k k k k k k M w &.S.f.S.S.S.S.f.S.S./ t M k k k k k k k k k k k M k ",
"k k k k k k k k k k k k k k M 0 { S.S.S.S.S.S.S.-.k k M k k k M M k k k M k k -.S.S.S.S.S.S.S.{ 0 M k k k k k k k k k k k k k k ",
"k k k k k k k k k k k k k k M M w _ 2.f.S.S.q.@.a k M k k k k k k k k k k M k a @.0.S.S.f.2._ w M k k k k k k k k k k k k k k k ",
"k k k k k k k k k k k k k k M k M 6 t W ( ^ M 8 k M k k k k k k k k k k k k M k 8 M ^ ( W t t M M M k k k k M M k k k k k k k k ",
"k k k k k M M k M M k k k k k k k M M a t t k M k k k k k k k k k k k k M M k k M k t t a M M k k k k k k k k k k M k k k k k M ",
"M k k k k M k k k k k k k k k k k k k M M M M k k k k k k k M k k M k k k k k k k M M M M k k k k k k k k k k k k k M k k k k M ",
"k k k k k M k k M k k k k k k k k k k k k k k M k k k k k k M k k M k k M k k k k k k k k k k k k k k k k k k M k k M k k k k k ",
"k k k k k k k k M k k k k k k M k M k k k k k M k k k k k k k k k k k k k k k k k k k k k k k k k k k k k k k M k k k k k k k k ",
"k k k k k k k k k k k k k k k M k k k k k k k k k k k k k k k k k k k k k k k k k k k k k k k k M k k k k k k k k k k k k k k k ",
"k k M M k k k k k k k k k k k k k k k k k M k k M k k k k M k k k k k k k k k k k k k k k k k k k k k k k M k k M k k k k M k k ",
"k k k k k k k M k k M k k k k k k k k k k M k k M k k k k k M k k k k M k k k k k k k M k k k k k k k k k M k k M k k k k k M k ",
"k k k k k k k k k k k k M k k k k k k k k k k k k k k k k k k k k k k k k k M M k k k M k M k k k k k k k k k k k k k k k k k k ",
"k k k k k k k k k k k k M k k k k k k M k k k k k k k k k k k k k k k k k k k k k k k M k k k k k k k M k k k k k k k k k k k k ",
"k k k k k k k k k k k k k k k k k k k M k k k k k k k k k k k k k k k M k k k k k k k k k k k k k k k M k k k k k k k k k k k k ",
"k k M k k k k k k k k k k k k k k k k k k k k k k k k k k k k k k k k M k k k k k k k k k k k k k k k k k k k k k k k k k k k k ",
"k k M k k k M k k k k k k k k k k k k k k k k k k M k k k k k k k k k k k k k M k k k k M k k k k k k k k k k k k M k k k k k k ",
"k k k k k k M k k k M M k k k k k k k k k M k k k M k k k k k k k k k k k k k M k k k k M k k k k k k k k M k k k M k k k k k k ",
"k k k k k k k k k k k k k k k k k k k k k k k k k k k k k k k k k k k k k k k k k k k k k k k k k k k k k k k k k k k k k k k k ",
"k k k k k k k k k k k k k k k k k k k k k k k k k k k k k k k k k k k k k k k k k k k k k k k k k k k k k k k k k k k k k k k k ",
"k k k k k k k k k k k k k k k k k k k k k k k k k k k k k k k k k M k k k k k k k k k k k k k k k k k k k k k k k k k k k k k k ",
"c c c c c c C c c c c c c c c c c c c c c c c c c c c c c c c c c c c c c c c c c c c c c c c c c c c c c c c c c c c c c c c c ",
"5 5 5 5 5 5 5 5 5 5 M k k k k k k k 5 5 5 5 5 5 5 5 5 5 k k k k k k k k 5 5 5 5 5 5 5 5 5 5 k k k k k k k M 5 5 5 5 5 5 5 5 5 5 ",
"% % % % % % % % % %                 % % % % % % % % % %                 % % % % % % % % % %                 % % % % % % % % % % ",
". . . . . . . . . .                 . . . . . . . . . .                 . . . . . . . . . .                 . . . . . . . . . . ",
". . . . . . . . . .                 . . . . . . . . . .                 . . . . . . . . . .                 . . . . . . . . . . ",
". . . . . . . . . .                 . . . . . . . . . .                 . . . . . . . . . .                 . . . . . . . . . . ",
". . . . . . . . . .                 . . . . . . . . . .                 . . . . . . . . . .                 . . . . . . . . . . ",
". . . . . . . . . .                 . . . . . . . . . .                 . . . . . . . . . .                 . . . . . . . . . . ",
". . . . . . . . . .                 . . . . . . . . . .                 . . . . . . . . . .                 . . . . . . . . . . ",
"  . . . . . . . .                     . . . . . . . .                     . . . . . . . .                     . . . . . . . .   ",
"    . . . . . .                         . . . . . .                         . . . . . .                         . . . . . .     ",
"        . . .                               . .                                 . .                                 . .         ",
"                                                                                                                                "
};
