/* XPM */
static char *result[] = {
/* columns rows colors chars-per-pixel */
"48 48 47 1 ",
"  c #D1BB0D",
". c #D2BC13",
"X c #D3BE1B",
"o c #D5C01D",
"O c #D8C31E",
"+ c #D5C123",
"@ c #DAC523",
"# c #DEC926",
"$ c #D7C428",
"% c #D9C629",
"& c #DDC92B",
"* c #DCC733",
"= c #DECA33",
"- c #E2CD2D",
"; c #E6D02E",
": c #EAD42F",
"> c #E1CE35",
", c #E1CF3B",
"< c #E6D233",
"1 c #EBD633",
"2 c #EDD836",
"3 c #E6D23B",
"4 c #EBD63B",
"5 c #EED93B",
"6 c #F0DB3F",
"7 c #E6D345",
"8 c #EAD643",
"9 c #EEDA42",
"0 c #E7D549",
"q c #E9D74B",
"w c #ECD94B",
"e c #F0DD45",
"r c #F2DE4B",
"t c #EEDC54",
"y c #F1DE50",
"u c #F1DF5C",
"i c #F2E04E",
"p c #F4E154",
"a c #F5E35C",
"s c #F6E563",
"d c #F8E765",
"f c #F8E866",
"g c #F7E669",
"h c #F8E769",
"j c #F7E868",
"k c #FAE96B",
"l c None",
/* pixels */
"llllllllllllllllllllllllllllllllllllllllllllllll",
"llllllllllllllllllllllllllllllllllllllllllllllll",
"llllllllllllllllllllllllllllllllllllllllllllllll",
"llllllllllllllllllllllllllllllllllllllllllllllll",
"llllllllllllllllllllllllllllllllllllllllllllllll",
"llllllllllllllllllllllllllllllllllllllllllllllll",
"lllllllllllllllllll=%$+++$$%=lllllllllllllllllll",
"llllllllllllllll=+$=,700007,=+$*llllllllllllllll",
"lllllllllllllll+*,0ttuusuuuut0,*+lllllllllllllll",
"lllllllllllll$$,0tuggggkgggguutq,$%lllllllllllll",
"llllllllllll+*7tusgggkkkkkkkgggut7=+llllllllllll",
"lllllllllll+=0tsggkkkkkkkkkkggggst0=+lllllllllll",
"llllllllllo=wtssggggkkkkkkkkgkggsstq>+llllllllll",
"lllllllll+*7tssjggkkkkkkkkkkkkgggsat0&$lllllllll",
"lllllllll+7tussjfkjjkffkkkjkjjgggssat7$lllllllll",
"llllllllo,wassssffjjffffffffffjjfsssyq>+llllllll",
"lllllll%%7yafaafddadfaffffaffffffadfay7%%lllllll",
"lllllllX>wuaafafaddafaaaaafaaaaaffaaapq>+lllllll",
"lllllll+3tpaaapaaaaaaaaaaaaaaaaaaaaaaur3+lllllll",
"llllll@&7tpaaaaapaaapaaaaapaaaaapaaaayt7%@llllll",
"llllll+*8yupaaaapppppappppappppapaaaaay8>Xllllll",
"llllllo>9yppppipppppppppppppppppppppyyrw,ollllll",
"llllllX,qrpypppipiippiiipiiipiipippppyyq>Xllllll",
"llllllX>wrppprriiiiiiiiiiiiiiiiiiirpyprq,Xllllll",
"llllllX>wwiiirririereireiii6ii6irrrrrir8,Xllllll",
"llllllX>9wrrrereeeeeeeee66i66i6irerrrr9w>Xllllll",
"llllllX*49iieereeeeeeeee6i6i6i66eeeeer98=ollllll",
"llllllo&399weee6e6966ee566666666eeeeee93#ollllll",
"llllllo@34996e666656559666666666e5eee983@Xllllll",
"lllllllo>499ee5662555555526662265969994>olllllll",
"lllllll.&34955555522222222222226555994<&.lllllll",
"lllllllX+>4555552222222222222222555544>Oolllllll",
"llllllll.&<44552222222111222221255544<&.llllllll",
"lllllllllo-<44451111::12112:12122441<&olllllllll",
"lllllllll.@-3111222:::::::::11111413-@olllllllll",
"llllllllll.@-<41:1212:::::::11111<<;@.llllllllll",
"lllllllllll.@-<1<1111:::::::::111<-@.lllllllllll",
"llllllllllll.o&-::<<:::1:::::::;;&O.llllllllllll",
"lllllllllllll o@&;;;1;::2:::::--@o lllllllllllll",
"lllllllllllllll O@#--;;;::;;-@@O.lllllllllllllll",
"llllllllllllllll  XOO@##@-@@OX  llllllllllllllll",
"lllllllllllllllllll   ....   lllllllllllllllllll",
"llllllllllllllllllllllllllllllllllllllllllllllll",
"llllllllllllllllllllllllllllllllllllllllllllllll",
"llllllllllllllllllllllllllllllllllllllllllllllll",
"llllllllllllllllllllllllllllllllllllllllllllllll",
"llllllllllllllllllllllllllllllllllllllllllllllll",
"llllllllllllllllllllllllllllllllllllllllllllllll"
};
