/* XPM */
static char *result[] = {
/* columns rows colors chars-per-pixel */
"64 64 5 1 ",
"  c #F4F700",
". c #F5F700",
"X c #F4F800",
"o c #F5F800",
"O c None",
/* pixels */
"OOOOOOOOOOOOOOOOOOOOOOOOOOOOOOOOOOOOOOOOOOOOOOOOOOOOOOOOOOOOOOOO",
"OOOOOOOOOOOOOOOOOOOOOOOOOOOOOOOOOOOOOOOOOOOOOOOOOOOOOOOOOOOOOOOO",
"OOOOOOOOOOOOOOOOOOOOOOOOOOOOOOOOOOOOOOOOOOOOOOOOOOOOOOOOOOOOOOOO",
"OOOOOOOOOOOOOOOOOOOOOOOOOOOOOOOOOOOOOOOOOOOOOOOOOOOOOOOOOOOOOOOO",
"OOOOOOOOOOOOOOOOOOOOOOOOOOOOOOOOOOOOOOOOOOOOOOOOOOOOOOOOOOOOOOOO",
"OOOOOOOOOOOOOOOOOOOOOOOOOOOOOOoooX.OOOOOOOOOOOOOOOOOOOOOOOOOOOOO",
"OOOOOOOOOOOOOOOOOOOOOOOO.  oooooooooooXXOOOOOOOOOOOOOOOOOOOOOOOO",
"OOOOOOOOOOOOOOOOOOOOOOXooooooooooooooooooXOOOOOOOOOOOOOOOOOOOOOO",
"OOOOOOOOOOOOOOOOOOO..oooooooooooooooooooooo.OOOOOOOOOOOOOOOOOOOO",
"OOOOOOOOOOOOOOOOOOXoooooooooooooooooooooooooooOOOOOOOOOOOOOOOOOO",
"OOOOOOOOOOOOOOOO oooooooooooooooooooooooooooooo OOOOOOOOOOOOOOOO",
"OOOOOOOOOOOOOOOXooooooooooooooooooooooooooooooooXOOOOOOOOOOOOOOO",
"OOOOOOOOOOOOOO.oooooooooooooooooooooooooooooooooooOOOOOOOOOOOOOO",
"OOOOOOOOOOOOOOoooooooooooooooooooo  OOO.oooooooooo.OOOOOOOOOOOOO",
"OOOOOOOOOOOOOO.ooooooooooooooooooXOOOOOOO ooooooooo.OOOOOOOOOOOO",
"OOOOOOOOOOOOOOO.oooooooooooooooo.OOOOOOOOOoooooooooo.OOOOOOOOOOO",
"OOOOOOOOOOOOOOOO.oooooooooooooooOOOOOOOOOO.oooooooooo.OOOOOOOOOO",
"OOOOOOOOOOOOOOOOO.ooooooooooooooOOOOOOOOOOOoooooooooooOOOOOOOOOO",
"OOOOOOOOOOOOOOOOOO.oooooooooooooOOOOOOOOOOOoooooooooooXOOOOOOOOO",
"OOOOOOOOOOOOOOOOOOO.ooooooooooooOOOOOOOOOOOooooooooooooOOOOOOOOO",
"OOOOOOOOOOOOOOOOOOOO.oooooooooooOOOOOOOOOO oooooooooooo OOOOOOOO",
"OOOOOOOOOOOOOOOOOOOOO.oooooooooo.OOOOOOOOO oooooooooooooOOOOOOOO",
"OOOOOOOOOOOOOOOOOOOOOO.oooooooooo OOOOOOOXoooooooooooooo.OOOOOOO",
"OOOOOOOOOOOOOOOOOOOOOOO.oooooooooo.OOOOO.ooooooooooooooooOOOOOOO",
"OOOOOOOOOOOOOOOOOOOOOOOO.ooooooooooooooooooooooooooooooooXOOOOOO",
"OOOOOOOOOOOOOOOOOOOOOOOOOOooooooooooooooooooooooooooooooo.OOOOOO",
"OOOOOOOOOOOOOOOOOOOOOOOOOOOoooooooooooooooooooooooooooooo OOOOOO",
"OOOOOOOO.ooo OOOOOOOOOOOOOOOooooooooooooooooooooooooooooooOOOOOO",
"OOOOOOO oooooo OOOOOOOOOOOOOOoooooooooooooooooooooooooooooOOOOOO",
"OOOOOO.ooooooooOOOOOOOOOOOOOOOoooooooooooooooooooooooooooo.OOOOO",
"OOOOOOoooooooooXOOOOOOOOOOOOOOOooooooooooooooooooooooooooooOOOOO",
"OOOOOoooooooooo OOOOOOOOOOOOOOOOoooooooooooooooooooooooooo OOOOO",
"OOOOOoooooooooo OOOOOOOOOOOOOOO.oooooooooooooooooooooooooo OOOOO",
"OOOOOOoooooooooXOOOOOOOOOOOOOO.ooooooooooooooooooooooooooooOOOOO",
"OOOOOO.ooooooooOOOOOOOOOOOOOO.oooooooooooooooooooooooooooo.OOOOO",
"OOOOOOO oooooo OOOOOOOOOOOOO.oooooooooooooooooooooooooooooOOOOOO",
"OOOOOOOO.ooo.OOOOOOOOOOOOOO.ooooooooooooooooooooooooooooooOOOOOO",
"OOOOOOOOOOOOOOOOOOOOOOOOOO.oooooooooooooooooooooooooooooo OOOOOO",
"OOOOOOOOOOOOOOOOOOOOOOOOO.ooooooooooooooooooooooooooooooo OOOOOO",
"OOOOOOOOOOOOOOOOOOOOOOOO.oooooooooooooooooooooooooooooooo OOOOOO",
"OOOOOOOOOOOOOOOOOOOOOOO.oooooooooooooooooooooooooooooooooOOOOOOO",
"OOOOOOOOOOOOOOOOOOOOOO.ooooooooooooooooooooooooooooooooo.OOOOOOO",
"OOOOOOOOOOOOOOOOOOOOO.ooooooooooooooooooooooooooooooooooOOOOOOOO",
"OOOOOOOOOOOOOOOOOOOO.oooooooooooooooooooooooooooooooooo OOOOOOOO",
"OOOOOOOOOOOOOOOOOOO.oooooooooooooooooooooooooooooooooooOOOOOOOOO",
"OOOOOOOOOOOOOOOOOO.oooooooooooooooooooooooooooooooooooXOOOOOOOOO",
"OOOOOOOOOOOOOOOOO.ooooooooooooooooooooooooooooooooooooOOOOOOOOOO",
"OOOOOOOOOOOOOOOO.oooooooooooooooooooooooooooooooooooooOOOOOOOOOO",
"OOOOOOOOOOOOOOO.oooooooooooooooooooooooooooooooooooo.OOOOOOOOOOO",
"OOOOOOOOOOOOOO.oooooooooooooooooooooooooooooooooooo.OOOOOOOOOOOO",
"OOOOOOOOOOOOOOoooooooooooooooooooooooooooooooooooo.OOOOOOOOOOOOO",
"OOOOOOOOOOOOOO.ooooooooooooooooooooooooooooooooooXOOOOOOOOOOOOOO",
"OOOOOOOOOOOOOOO ooooooooooooooooooooooooooooooooXOOOOOOOOOOOOOOO",
"OOOOOOOOOOOOOOOO oooooooooooooooooooooooooooooo OOOOOOOOOOOOOOOO",
"OOOOOOOOOOOOOOOOOOXoooooooooooooooooooooooooooOOOOOOOOOOOOOOOOOO",
"OOOOOOOOOOOOOOOOOOO..oooooooooooooooooooooooOOOOOOOOOOOOOOOOOOOO",
"OOOOOOOOOOOOOOOOOOOOOOXooooooooooooooooooXOOOOOOOOOOOOOOOOOOOOOO",
"OOOOOOOOOOOOOOOOOOOOOOOO.  oooooooooo .XOOOOOOOOOOOOOOOOOOOOOOOO",
"OOOOOOOOOOOOOOOOOOOOOOOOOOOOOOXoo .OOOOOOOOOOOOOOOOOOOOOOOOOOOOO",
"OOOOOOOOOOOOOOOOOOOOOOOOOOOOOOOOOOOOOOOOOOOOOOOOOOOOOOOOOOOOOOOO",
"OOOOOOOOOOOOOOOOOOOOOOOOOOOOOOOOOOOOOOOOOOOOOOOOOOOOOOOOOOOOOOOO",
"OOOOOOOOOOOOOOOOOOOOOOOOOOOOOOOOOOOOOOOOOOOOOOOOOOOOOOOOOOOOOOOO",
"OOOOOOOOOOOOOOOOOOOOOOOOOOOOOOOOOOOOOOOOOOOOOOOOOOOOOOOOOOOOOOOO",
"OOOOOOOOOOOOOOOOOOOOOOOOOOOOOOOOOOOOOOOOOOOOOOOOOOOOOOOOOOOOOOOO"
};
