/* XPM */
static char *result[] = {
/* columns rows colors chars-per-pixel */
"64 64 5 1 ",
"  c #F4F700",
". c #F5F700",
"X c #F4F800",
"o c #F5F800",
"O c None",
/* pixels */
"OOOOOOOOOOOOOOOOOOOOOOOOOOOOOOOOOOOOOOOOOOOOOOOOOOOOOOOOOOOOOOOO",
"OOOOOOOOOOOOOOOOOOOOOOOOOOOOOOOOOOOOOOOOOOOOOOOOOOOOOOOOOOOOOOOO",
"OOOOOOOOOOOOOOOOOOOOOOOOOOOOOOOOOOOOOOOOOOOOOOOOOOOOOOOOOOOOOOOO",
"OOOOOOOOOOOOOOOOOOOOOOOOOOOOOOOOOOOOOOOOOOOOOOOOOOOOOOOOOOOOOOOO",
"OOOOOOOOOOOOOOOOOOOOOOOOOOOOOOOOOOOOOOOOOOOOOOOOOOOOOOOOOOOOOOOO",
"OOOOOOOOOOOOOOOOOOOOOOOOOOOOOOoooX.OOOOOOOOOOOOOOOOOOOOOOOOOOOOO",
"OOOOOOOOOOOOOOOOOOOOOOOO.  oooooooooooXXOOOOOOOOOOOOOOOOOOOOOOOO",
"OOOOOOOOOOOOOOOOOOOOOOXooooooooooooooooooXOOOOOOOOOOOOOOOOOOOOOO",
"OOOOOOOOOOOOOOOOOOO..oooooooooooooooooooooo.OOOOOOOOOOOOOOOOOOOO",
"OOOOOOOOOOOOOOOOOOXoooooooooooooooooooooooooooOOOOOOOOOOOOOOOOOO",
"OOOOOOOOOOOOOOOOXXXXXXooooooooooooooooooooooooo OOOOOOOOOOOOOOOO",
"OOOOOOOOOOOOOOXXXXXXXXXXXoooooooooooooooooooooooXOOOOOOOOOOOOOOO",
"OOOOOOOOOOOOOXXXXXXXXXXXXXooooooooooooooooooooooooOOOOOOOOOOOOOO",
"OOOOOOOOOOOOXXXXXXXXXXXXXXXooooooo  OOO.oooooooooo.OOOOOOOOOOOOO",
"OOOOOOOOOOOXXXXXXXXXXXXXXXXXoooooXOOOOOOO ooooooooo.OOOOOOOOOOOO",
"OOOOOOOOOOXXXXXXXXXXXXXXXXXXXooo.OOOOOOOOOoooooooooo.OOOOOOOOOOO",
"OOOOOOOOOXXXXXXXXXXXXXXXXXXXXXooOOOOOOOOOO.oooooooooo.OOOOOOOOOO",
"OOOOOOOOOXXXXXXXXXXXXXXXXXXXXXooOOOOOOOOOOOoooooooooooOOOOOOOOOO",
"OOOOOOOOXXXXXXXXXXXXXXXXXXXXXXXoOOOOOOOOOOOoooooooooooXOOOOOOOOO",
"OOOOOOOOXXXXXXXXXXXXXXXXXXXXXXXoOOOOOOOOOOOooooooooooooOOOOOOOOO",
"OOOOOOOXXXXXXXXXXXXXXXXXXXXXXXXXOOOOOOOOOO oooooooooooo OOOOOOOO",
"OOOOOOOXXXXXXXXXXXXXXXXXXXXXXXXX.OOOOOOOOO oooooooooooooOOOOOOOO",
"OOOOOOOXXXXXXXXXXXXXXXXXXXXXXXXXo OOOOOOOXoooooooooooooo.OOOOOOO",
"OOOOOOXXXXXXXXXXXXXXXXXXXXXXXXXXXo.OOOOO.ooooooooooooooooOOOOOOO",
"OOOOOOXXXXXXXXXXXXXXXXXXXXXXXXXXXooooooooooooooooooooooooXOOOOOO",
"OOOOOOXXXXXXXXXXXXXXXXXXXXXXXXXXXoooooooooooooooooooooooo.OOOOOO",
"OOOOOOXXXXXXXXXXXXXXXXXXXXXXXXXXXoooooooooooooooooooooooo OOOOOO",
"OOOOOXXXXXXXXXXXXXXXXXXXXXXXXXXXXXooooooooooooooooooooooooOOOOOO",
"OOOOOXXXXXXXXXXXXXXXXXXXXXXXXXXXXXooooooooooooooooooooooooOOOOOO",
"OOOOOXXXXXXXXXXXXXXXXXXXXXXXXXXXXXoooooooooooooooooooooooo.OOOOO",
"OOOOOXXXXXXXXXXXXXXXXXXXXXXXXXXXXXoooooooooooooooooooooooooOOOOO",
"OOOOOXXXXXXXXXXXXXXXXXXXXXXXXXXXXXoooooooooooooooooooooooo OOOOO",
"OOOOOXXXXXXXXXXXXXXXXXXXXXXXXXXXXXoooooooooooooooooooooooo OOOOO",
"OOOOOXXXXXXXXXXXXXXXXXXXXXXXXXXXXXoooooooooooooooooooooooooOOOOO",
"OOOOOXXXXXXXXXXXXXXXXXXXXXXXXXXXXXoooooooooooooooooooooooo.OOOOO",
"OOOOOXXXXXXXXXXXXXXXXXXXXXXXXXXXXXooooooooooooooooooooooooOOOOOO",
"OOOOOXXXXXXXXXXXXXXXXXXXXXXXXXXXXXooooooooooooooooooooooooOOOOOO",
"OOOOOXXXXXXXXXXXXXXXXXXXXXXXXXXXXXooooooooooooooooooooooo OOOOOO",
"OOOOOOXXXXXXXXXXXXXXXXXXXXXXXXXXXoooooooooooooooooooooooo OOOOOO",
"OOOOOOXXXXXXXXXXXXXXXXXXXXXXXXXXXoooooooooooooooooooooooo OOOOOO",
"OOOOOOXXXXXXXXXXXXXXXXXXXXXXXXXXXooooooooooooooooooooooooOOOOOOO",
"OOOOOOXXXXXXXXXXXXXXXXXXXXXXXXXXXooooooooooooooooooooooo.OOOOOOO",
"OOOOOOOXXXXXXXXXXXXXXXXXXXXXXXXXooooooooooooooooooooooooOOOOOOOO",
"OOOOOOOXXXXXXXXXXXXXXXXXXXXXXXXXooooooooooooooooooooooo OOOOOOOO",
"OOOOOOOXXXXXXXXXXXXXXXXXXXXXXXXXoooooooooooooooooooooooOOOOOOOOO",
"OOOOOOOOXXXXXXXXXXXXXXXXXXXXXXXoooooooooooooooooooooooXOOOOOOOOO",
"OOOOOOOOXXXXXXXXXXXXXXXXXXXXXXXoooooooooooooooooooooooOOOOOOOOOO",
"OOOOOOOOOXXXXXXXXXXXXXXXXXXXXXooooooooooooooooooooooooOOOOOOOOOO",
"OOOOOOOOOXXXXXXXXXXXXXXXXXXXXXoooooooooooooooooooooo.OOOOOOOOOOO",
"OOOOOOOOOOXXXXXXXXXXXXXXXXXXXoooooooooooooooooooooo.OOOOOOOOOOOO",
"OOOOOOOOOOOXXXXXXXXXXXXXXXXXoooooooooooooooooooooo.OOOOOOOOOOOOO",
"OOOOOOOOOOOOXXXXXXXXXXXXXXXooooooooooooooooooooooXOOOOOOOOOOOOOO",
"OOOOOOOOOOOOOXXXXXXXXXXXXXooooooooooooooooooooooXOOOOOOOOOOOOOOO",
"OOOOOOOOOOOOOOXXXXXXXXXXXoooooooooooooooooooooo OOOOOOOOOOOOOOOO",
"OOOOOOOOOOOOOOOOOXXXXXooooooooooooooooooooooooOOOOOOOOOOOOOOOOOO",
"OOOOOOOOOOOOOOOOOOO..oooooooooooooooooooooooOOOOOOOOOOOOOOOOOOOO",
"OOOOOOOOOOOOOOOOOOOOOOXooooooooooooooooooXOOOOOOOOOOOOOOOOOOOOOO",
"OOOOOOOOOOOOOOOOOOOOOOOO.  oooooooooo .XOOOOOOOOOOOOOOOOOOOOOOOO",
"OOOOOOOOOOOOOOOOOOOOOOOOOOOOOOXoo .OOOOOOOOOOOOOOOOOOOOOOOOOOOOO",
"OOOOOOOOOOOOOOOOOOOOOOOOOOOOOOOOOOOOOOOOOOOOOOOOOOOOOOOOOOOOOOOO",
"OOOOOOOOOOOOOOOOOOOOOOOOOOOOOOOOOOOOOOOOOOOOOOOOOOOOOOOOOOOOOOOO",
"OOOOOOOOOOOOOOOOOOOOOOOOOOOOOOOOOOOOOOOOOOOOOOOOOOOOOOOOOOOOOOOO",
"OOOOOOOOOOOOOOOOOOOOOOOOOOOOOOOOOOOOOOOOOOOOOOOOOOOOOOOOOOOOOOOO",
"OOOOOOOOOOOOOOOOOOOOOOOOOOOOOOOOOOOOOOOOOOOOOOOOOOOOOOOOOOOOOOOO"
};
