/* XPM */
static char *result[] = {
/* columns rows colors chars-per-pixel */
"64 64 217 2 ",
"   c #161C2E",
".  c #171E30",
"X  c #192131",
"o  c #1A2334",
"O  c #1B2334",
"+  c #1D2736",
"@  c #1F2737",
"#  c #212633",
"$  c #232D3B",
"%  c #272E39",
"&  c #25303D",
"*  c #27333F",
"=  c #373136",
"-  c #3D3F34",
";  c #3A3338",
":  c #40373B",
">  c #463D3D",
",  c #4C3F3D",
"<  c #4B403E",
"1  c #4F453F",
"2  c #505237",
"3  c #525834",
"4  c #666B36",
"5  c #727838",
"6  c #777F38",
"7  c #7D783D",
"8  c #253140",
"9  c #2B3743",
"0  c #2B3B46",
"q  c #2C3B46",
"w  c #2C3D49",
"e  c #313D46",
"r  c #3F4342",
"t  c #32414A",
"y  c #32424B",
"u  c #36464D",
"i  c #384449",
"p  c #3F4B4E",
"a  c #364C56",
"s  c #384950",
"d  c #384D55",
"f  c #3A4F56",
"g  c #3C4F55",
"h  c #364F5A",
"j  c #3D575E",
"k  c #584541",
"l  c #524D44",
"z  c #4B534F",
"x  c #565141",
"c  c #525445",
"v  c #5D5A48",
"b  c #405358",
"n  c #43585B",
"m  c #435B5F",
"M  c #455A5D",
"N  c #604E42",
"B  c #6C5445",
"V  c #6E5546",
"C  c #685C41",
"Z  c #735948",
"A  c #586257",
"S  c #6C6E4E",
"D  c #746345",
"F  c #7C6149",
"G  c #7E674D",
"H  c #666151",
"J  c #676C5D",
"K  c #706B5A",
"L  c #495F60",
"P  c #405F68",
"I  c #476165",
"U  c #4D6667",
"Y  c #41626B",
"T  c #4C6A6D",
"R  c #5E6D64",
"E  c #506B6B",
"W  c #516E6E",
"Q  c #476B72",
"!  c #486D73",
"~  c #4B6D73",
"^  c #4C7379",
"/  c #4F787D",
"(  c #557473",
")  c #517479",
"_  c #56787A",
"`  c #527A7F",
"'  c #737D6A",
"]  c #667873",
"[  c #8A6E4A",
"{  c #836F51",
"}  c #9A7250",
"|  c #9A7E55",
" . c #A77E53",
".. c #A37854",
"X. c #65827A",
"o. c #76877A",
"O. c #878C3A",
"+. c #89913A",
"@. c #8B923A",
"#. c #9A9F3D",
"$. c #868050",
"%. c #978A55",
"&. c #B79E4F",
"*. c #AC8056",
"=. c #B28555",
"-. c #B68E5D",
";. c #A29154",
":. c #ADAC43",
">. c #A0AC48",
",. c #BBAD4F",
"<. c #838965",
"1. c #92966D",
"2. c #879B7D",
"3. c #A39966",
"4. c #BC9461",
"5. c #98A17C",
"6. c #9CAF7D",
"7. c #BFAE61",
"8. c #ABA277",
"9. c #B4A872",
"0. c #BFB670",
"q. c #C2A64F",
"w. c #C4BF4E",
"e. c #D7BD4F",
"r. c #CEA454",
"t. c #CEA554",
"y. c #D0A853",
"u. c #CBB451",
"i. c #D6B950",
"p. c #D5BD51",
"a. c #C6A067",
"s. c #BEC565",
"d. c #C9CC42",
"f. c #DDCB4C",
"g. c #CED548",
"h. c #D5DC41",
"j. c #E0D54A",
"k. c #E4DF48",
"l. c #DDE355",
"z. c #E0E746",
"x. c #E9ED46",
"c. c #EAF044",
"v. c #EBF24E",
"b. c #D2C779",
"n. c #E0DB72",
"m. c #E4EA66",
"M. c #EAF06B",
"N. c #F0F27D",
"B. c #597E80",
"V. c #558185",
"C. c #5B8283",
"Z. c #578588",
"A. c #5A878A",
"S. c #5E8688",
"D. c #5E8C8C",
"F. c #638585",
"G. c #648A8D",
"H. c #688B88",
"J. c #6D9184",
"K. c #66928F",
"L. c #729087",
"P. c #7E998B",
"I. c #608F90",
"U. c #619192",
"Y. c #609395",
"T. c #629595",
"R. c #6A9497",
"E. c #659998",
"W. c #649B9B",
"Q. c #669D9D",
"!. c #6A9999",
"~. c #6E9B9B",
"^. c #689C9C",
"/. c #689F9F",
"(. c #749990",
"). c #6DA09F",
"_. c #7FA49A",
"`. c #6BA2A2",
"'. c #6EA5A5",
"]. c #75A0A1",
"[. c #71A7A7",
"{. c #78A5A1",
"}. c #7CAAA3",
"|. c #73AAAA",
" X c #78A9AA",
".X c #79AEAF",
"XX c #7FB2B3",
"oX c #8CA99A",
"OX c #B3BB88",
"+X c #A3BD93",
"@X c #9DAFA1",
"#X c #8DB4A5",
"$X c #80B0A8",
"%X c #8BB8AE",
"&X c #96BDAF",
"*X c #81B7B7",
"=X c #83BABB",
"-X c #88BCBC",
";X c #90BBB2",
":X c #8EC2BF",
">X c #93C3BD",
",X c #9CC9BD",
"<X c #A6CAB6",
"1X c #A9CDBB",
"2X c #CDD58A",
"3X c #D3D08C",
"4X c #DED589",
"5X c #ECE585",
"6X c #E5E18C",
"7X c #F5F896",
"8X c #F6F9A9",
"9X c #8AC1C2",
"0X c #8DC4C5",
"qX c #91C7C5",
"wX c #FBFCD8",
"eX c #FEFFF2",
"rX c None",
/* pixels */
"rXrXrXrXrXrXrXrXrXrXrXrXrXrXrXrXrXrXrXrXrXrXrXrXrXrXrXrXrXrXrXrXrXrXrXrXrXrXrXrXrXrXrXrXrXrXrXrXrXrXrXrXrXrXrXrXrXrXrXrXrXrXrXrX",
"rXrXrXrXrXrXrXrXrXrXrXrXrXrXrXrXrXrXrXrXrXrXrXrXrXrXrXrXrXrXrXrXrXrXrXrXrXrXrXrXrXrXrXrXrXrXrXrXrXrXrXrXrXrXrXrXrXrXrXrXrXrXrXrX",
"rXrXrXrXrXrXrXrXrXrXrXrXrXrXrXrXrXrXrXrXrXrXrXrXrXrXrXrXrXrXrXrXrXrXrXrXrXrXrXrXrXrXrXrXrXrXrXrXrXrXrXrXrXrXrXrXrXrXrXrXrXrXrXrX",
"rXrXrXrXrXrXrXrXrXrXrXrXrXrXrXrXrXrXrXrXrXrXrXrXrXrXrXrXrXrXrXrXrXrXrXrXrXrXrXrXrXrXrXrXrXrXrXrXrXrXrXrXrXrXrXrXrXrXrXrXrXrXrXrX",
"rXrXrXrXrXrXrXrXrXrXrXrXrXrXrXrXrXrXrXrXrXrXrXrXrXrXrXrXrXrXrXrXrXrXrXrXrXrXrXrXrXrXrXrXrXrXrXrXrXrXrXrXrXrXrXrXrXrXrXrXrXrXrXrX",
"rXrXrXrXrXrXrXrXrXrXrXrXrXrXrXrXrXrXrXrXrXrXrXrXrXrXrXrXrXrXrXrXrXrXrXrXrXrXrXrXrXrXrXrXrXrXrXrXrXrXrXrXrXrXrXrXrXrXrXrXrXrXrXrX",
"rXrXrXrXrXrXrXrXrXrXrXrXrXrXrXrXrXrXrXrXrXrXrXrXrXrXrXrXrXrXrXrXrXrXrXrXrXrXrXrXrXrXrXrXrXrXrXrXrXrXrXrXrXrXrXrXrXrXrXrXrXrXrXrX",
"rXrXrXrXrXrXrXrXrXrXrXrXrXrXrXrXrXrXrXrXrXrXrXrXrXrXrXrXrXrXrXrXrXrXrXrXrXrXrXrXrXrXrXrXrXrXrXrXrXrXrXrXrXrXrXrXrXrXrXrXrXrXrXrX",
"rXrXrXrXrXrXrXrXrXrXrXrXrXrXrXrXrXrXrXrXrXrXrXrXrXrXrXrXrXrXrXrXrXrXrXrXrXrXrXrXrXrXrXrXrXrXrXrXrXrXrXrXrXrXrXrXrXrXrXrXrXrXrXrX",
"rXrXrXrXrXrXrXrXrXrXrXrXrXrXrXrXrXrXrXrXrXrXrXrXrXrXrXrXrXrXrXrXrXrXrXrXrXrXrXrXrXrXrXrXrXrXrXrXrXrXrXrXrXrXrXrXrXrXrXrXrXrXrXrX",
"rXrXrXrXrXrXrXrXrXrXrXrXrXrXrXrXrXrXrXrXrXrXrXrXrXrXrXrXrXrXrXrXrXrXrXrXrXrXrXrXrXrXrXrXrXrXrXrXrXrXrXrXrXrXrXrXrXrXrXrXrXrXrXrX",
"rXrXrXrXrXrXrXrXrXrXrXrXrXrXrXrXrXrXrXrXrXrXrXrXrXrXrXrXrXrXrXrXrXrXrXrXrXrXrXrXrXrXrXrXrXrXrXrXrXrXrXrXrXrXrXrXrXrXrXrXrXrXrXrX",
"rXrXrXrXrXrXrXrXrXrXrXrXrXrXrXrXrXrXrXrXrXrXrXrXrXO + h d y j ` ) T a q 0 l c rXrXrXrXrXrXrXrXrXrXrXrXrXrXrXrXrXrXrXrXrXrXrXrXrX",
"rXrXrXrXrXrXrXrXrXrXrXrXrXrXrXrXrXrXrXrXrXrXrX8 S.~ C.|.|.E.D.W.Q.Q.E.C.A.<.6.) 8 rXrXrXrXrXrXrXrXrXrXrXrXrXrXrXrXrXrXrXrXrXrXrX",
"rXrXrXrXrXrXrXrXrXrXrXrXrXrXrXrXrXrXrXrXrX+ j ).9X^.).[.`.`.E.E.`.|.|./.|.C.K.9X^.j + rXrXrXrXrXrXrXrXrXrXrXrXrXrXrXrXrXrXrXrXrX",
"rXrXrXrXrXrXrXrXrXrXrXrXrXrXrXrXrXrXrX$ @ * _ [.:X_.8.#X=X.XD.!.=X0X9X=XR.) [.:X[._ * @ $ rXrXrXrXrXrXrXrXrXrXrXrXrXrXrXrXrXrXrX",
"rXrXrXrXrXrXrXrXrXrXrXrXrXrXrXrXrX+ w A.j t W T.&X+Xb.' ^./.W.U.).*X.X XI C.*X%XT.W t j A.w + rXrXrXrXrXrXrXrXrXrXrXrXrXrXrXrXrX",
"rXrXrXrXrXrXrXrXrXrXrXrXrXrXrXrXh ^ I P.K b I C.Q.K.R ( [.`.`.[.`.E.R.XXH.' 2.!.S.b s I E.I ^ h rXrXrXrXrXrXrXrXrXrXrXrXrXrXrXrX",
"rXrXrXrXrXrXrXrXrXrXrXrXrXrXrX  a T.E OX0.( [.XX).U m E [.*XXX].E (  X.X_ &.6X@XXX.XB.C.T.E T.a   rXrXrXrXrXrXrXrXrXrXrXrXrXrXrX",
"rXrXrXrXrXrXrXrXrXrXrXrXrXrX. s n W p J v L {.,X-XG.9 U ^..X*X%XP.( `.Q.U ;.5X+X9X.XW m I p W n s . rXrXrXrXrXrXrXrXrXrXrXrXrXrX",
"rXrXrXrXrXrXrXrXrXrXrXrXrXrX& U b p K v 9 _ ^.$X X` t W T.Q.Q./.E.T T.Q.` r S (.|.^._ t e u s b U & rXrXrXrXrXrXrXrXrXrXrXrXrXrX",
"rXrXrXrXrXrXrXrXrXrXrXrX+ y s t C._.3X%.z ] T.A.^. X XK.B.D.W.Q.D.b S.[.R.~.].I.D.I.W m j R..X_ e s y O rXrXrXrXrXrXrXrXrXrXrXrX",
"rXrXrXrXrXrXrXrXrXrXrXrXg U u s .XXX2.S 9.7.H f S.=XqX:X-XR.I B.E 9 T  X>X,X&XK.f t f A.XX0XqX Xs 9 U g rXrXrXrXrXrXrXrXrXrXrXrX",
"rXrXrXrXrXrXrXrXrXrXrXi L f u E !.*X;Xs.7Xn.C L _ ^.$X&X<XoXf W W _ G.F.H.).Q.D.U J <._.9X=X.X!.W u s L i rXrXrXrXrXrXrXrXrXrXrX",
"rXrXrXrXrXrXrXrXrXrXO * e # u E D./.~.6.:.;.r L B.T.W.Q./.( f ].=XqX,X(.T W.L.o.z w.n.OX).`./.I.E u > 3.e O rXrXrXrXrXrXrXrXrXrX",
"rXrXrXrXrXrXrXrXrXrX& m t e I S.B.^ T.T.b L 9 n D./.Q.Q.W.( p C./.'.).) I ` $.0.x u.N.g.X.U.^ B.S.I p J L & rXrXrXrXrXrXrXrXrXrX",
"rXrXrXrXrXrXrXrXrX0 p R z b G.0X=XG.~. X_ s % ~ A.U.W.W.C.%.1.S.T.'.'.) G. Xo.6.E v ;.<.~.~.G.=X0XG.f f E s 8 rXrXrXrXrXrXrXrXrX",
"rXrXrXrXrXrXrXrXrXM K b.%.W  X0X0X0X0X0XXXI u ~.-X X|.`.C.1.5.I b ~.*X;X;X.X'..X~.u I XX0X0X0X0XqX.XT u U b d rXrXrXrXrXrXrXrXrX",
"rXrXrXrXrXrXrXrXrXM S w.[ ^ '..X*X,X1X;XF.I t W ).-X1X1X<XXX~.W t _ ^.).^.W.Q.I.W t I F.;X1X1X&X%X'.D.9 * u M rXrXrXrXrXrXrXrXrX",
"rXrXrXrXrXrXrXrX+ p e z n ` Q.W.`.}.}.K.E L 9 I C.^.}.}.}.).T.E p U A.Q.Q.Q.Q.A.U t L E K.}.}.L.2.!.A.f e e u X rXrXrXrXrXrXrXrX",
"rXrXrXrXrXrXrXrX$ t * T D.I.[.`.Q.W.Q.T.U e : H ] H.L.(.P.o.J | *.H J ] X.X.W R H 1 e U T.!.F.H 4XP.D.I.E r p $ rXrXrXrXrXrXrXrX",
"rXrXrXrXrXrXrX. * 9 t E ( ].9X-X*X[.Q.D.m * N -.-.G F 4.a.G { a.a.G G 4.*.D D 4.-.B * m X.3.0.K 1._.].( A 7.' % O rXrXrXrXrXrXrX",
"rXrXrXrXrXrXrX  * j F.( ' 3.1.~..X[._ E E m 1 .. .B Z *.=.Z B *...B B *. .B B *...1 m E z 7.8Xn.J.C.W E U 5.A %   rXrXrXrXrXrXrX",
"rXrXrXrXrXrXrXX m ~.0X$X2XN.d.z o.o.m b L * >  . .B B &.&.D B  .q.D D q. .B C =. .> * m u | ,.>.p I _ R.*X9X!.m 8 rXrXrXrXrXrXrX",
"rXrXrXrXrXrXrX& _ '.=XJ.w.n.&.1 0.$.~ ].G.b % ; - # # 2 4 4 4 C 5 4 4 5 - # % - ; % b H.}.{.#X~.e B.-X,X,X=X'._ & rXrXrXrXrXrXrX",
"rXrXrXrXrXrXrXw I.Q./.U.J.1.z u ' X.;X&XH.E e k > B : +.z.z.m.m.l.M.m.z.@.; 1 > k e E H.&X<X*X!.f ( '.}.{.).Q.I.w rXrXrXrXrXrXrX",
"rXrXrXrXrXrX  9 U.`.Q.Q.Q.K.J p I./.).Q.E.( e B G ..D O.c.N.eXeX8XM.v.c.O.D F [ Z t ( E.Q.).^.J.p u C.W.W.Q.`.U.9   rXrXrXrXrXrX",
"rXrXrXrXrXrXo s D.*X.X'.[.oXb.2 ^ /.W.Q.Q._ u B ..=.%.5 c.7XwXwXwX8Xv.c.4 :.=...B p ' !.Q.Q.L.7.9.] I.|.'..X*XD.s o rXrXrXrXrXrX",
"rXrXrXrXrXrX@ W W.|.:X>X0X,X6.r ) `.'./._ n # k  ...,.6 c.v.v.N.8XN.v.h.2 w.-.*.1 2 b.2.^.`.L &.s._.qX0X>X:X|.W.W @ rXrXrXrXrXrX",
"rXrXrXrXrX  9 _ Q./.{.(._.$XD.S.-X9X9X-X XU.Y > }  .w.4 h.c.c.c.v.v.c.g.2 w.| =.> b 6.#X-X9XR.o.J.D.$X_.(.{./.Q._ 9   rXrXrXrXrX",
"rXrXrXrXrXrXq q Y ` W.W.W.E.S.&XqX0X9X9X9X*X^ % } 4.p.5 d.k.j.j.k.j.k.g.4 u...} % ~ .X9X9X9XqXqX&XS.E.W.W.W.` Y q q rXrXrXrXrXrX",
"rXrXrXrXrXrXrXrX  + / Q.W.~ b P.&X;X{.!.!.U.W u F 4.q.5 d.j.j.i.y.p.c.:.4 q.=.F u W K.!.!.{.;X&XP.b ~ W.Q./ +   rXrXrXrXrXrXrXrX",
"rXrXrXrXrXrXrXrXrXrXrXrXh o $ ~ Q.Q.Q.Q.U.~ I b Z =. .C d.k.f.y.y.i.f.#.1 *.*.N s g ^ I.Q.Q.Q.Q.~ % 8 h rXrXrXrXrXrXrXrXrXrXrXrX",
"rXrXrXrXrXrXrXrXrXrXrXrXrXrXrX0 ! V.Y.Z.P X   + < } } G d.x.e.r.t.y.i.7 N } ..< o   o h Z.Y.V.Q 8 X rXrXrXrXrXrXrXrXrXrXrXrXrXrX",
"rXrXrXrXrXrXrXrXrXrXrXrXrXrXrXrXrXrXrXrXrXrXrX. @ , V V 3 rXrXrXrXrXrXrX= = V = rXrXrXrXrXrXrXrXrXrXrXrXrXrXrXrXrXrXrXrXrXrXrXrX",
"rXrXrXrXrXrXrXrXrXrXrXrXrXrXrXrXrXrXrXrXrXrXrXrXrXrXrXrXrXrXrXrXrXrXrXrXrXrXrXrXrXrXrXrXrXrXrXrXrXrXrXrXrXrXrXrXrXrXrXrXrXrXrXrX",
"rXrXrXrXrXrXrXrXrXrXrXrXrXrXrXrXrXrXrXrXrXrXrXrXrXrXrXrXrXrXrXrXrXrXrXrXrXrXrXrXrXrXrXrXrXrXrXrXrXrXrXrXrXrXrXrXrXrXrXrXrXrXrXrX",
"rXrXrXrXrXrXrXrXrXrXrXrXrXrXrXrXrXrXrXrXrXrXrXrXrXrXrXrXrXrXrXrXrXrXrXrXrXrXrXrXrXrXrXrXrXrXrXrXrXrXrXrXrXrXrXrXrXrXrXrXrXrXrXrX",
"rXrXrXrXrXrXrXrXrXrXrXrXrXrXrXrXrXrXrXrXrXrXrXrXrXrXrXrXrXrXrXrXrXrXrXrXrXrXrXrXrXrXrXrXrXrXrXrXrXrXrXrXrXrXrXrXrXrXrXrXrXrXrXrX",
"rXrXrXrXrXrXrXrXrXrXrXrXrXrXrXrXrXrXrXrXrXrXrXrXrXrXrXrXrXrXrXrXrXrXrXrXrXrXrXrXrXrXrXrXrXrXrXrXrXrXrXrXrXrXrXrXrXrXrXrXrXrXrXrX",
"rXrXrXrXrXrXrXrXrXrXrXrXrXrXrXrXrXrXrXrXrXrXrXrXrXrXrXrXrXrXrXrXrXrXrXrXrXrXrXrXrXrXrXrXrXrXrXrXrXrXrXrXrXrXrXrXrXrXrXrXrXrXrXrX",
"rXrXrXrXrXrXrXrXrXrXrXrXrXrXrXrXrXrXrXrXrXrXrXrXrXrXrXrXrXrXrXrXrXrXrXrXrXrXrXrXrXrXrXrXrXrXrXrXrXrXrXrXrXrXrXrXrXrXrXrXrXrXrXrX",
"rXrXrXrXrXrXrXrXrXrXrXrXrXrXrXrXrXrXrXrXrXrXrXrXrXrXrXrXrXrXrXrXrXrXrXrXrXrXrXrXrXrXrXrXrXrXrXrXrXrXrXrXrXrXrXrXrXrXrXrXrXrXrXrX",
"rXrXrXrXrXrXrXrXrXrXrXrXrXrXrXrXrXrXrXrXrXrXrXrXrXrXrXrXrXrXrXrXrXrXrXrXrXrXrXrXrXrXrXrXrXrXrXrXrXrXrXrXrXrXrXrXrXrXrXrXrXrXrXrX",
"rXrXrXrXrXrXrXrXrXrXrXrXrXrXrXrXrXrXrXrXrXrXrXrXrXrXrXrXrXrXrXrXrXrXrXrXrXrXrXrXrXrXrXrXrXrXrXrXrXrXrXrXrXrXrXrXrXrXrXrXrXrXrXrX",
"rXrXrXrXrXrXrXrXrXrXrXrXrXrXrXrXrXrXrXrXrXrXrXrXrXrXrXrXrXrXrXrXrXrXrXrXrXrXrXrXrXrXrXrXrXrXrXrXrXrXrXrXrXrXrXrXrXrXrXrXrXrXrXrX",
"rXrXrXrXrXrXrXrXrXrXrXrXrXrXrXrXrXrXrXrXrXrXrXrXrXrXrXrXrXrXrXrXrXrXrXrXrXrXrXrXrXrXrXrXrXrXrXrXrXrXrXrXrXrXrXrXrXrXrXrXrXrXrXrX",
"rXrXrXrXrXrXrXrXrXrXrXrXrXrXrXrXrXrXrXrXrXrXrXrXrXrXrXrXrXrXrXrXrXrXrXrXrXrXrXrXrXrXrXrXrXrXrXrXrXrXrXrXrXrXrXrXrXrXrXrXrXrXrXrX",
"rXrXrXrXrXrXrXrXrXrXrXrXrXrXrXrXrXrXrXrXrXrXrXrXrXrXrXrXrXrXrXrXrXrXrXrXrXrXrXrXrXrXrXrXrXrXrXrXrXrXrXrXrXrXrXrXrXrXrXrXrXrXrXrX",
"rXrXrXrXrXrXrXrXrXrXrXrXrXrXrXrXrXrXrXrXrXrXrXrXrXrXrXrXrXrXrXrXrXrXrXrXrXrXrXrXrXrXrXrXrXrXrXrXrXrXrXrXrXrXrXrXrXrXrXrXrXrXrXrX",
"rXrXrXrXrXrXrXrXrXrXrXrXrXrXrXrXrXrXrXrXrXrXrXrXrXrXrXrXrXrXrXrXrXrXrXrXrXrXrXrXrXrXrXrXrXrXrXrXrXrXrXrXrXrXrXrXrXrXrXrXrXrXrXrX",
"rXrXrXrXrXrXrXrXrXrXrXrXrXrXrXrXrXrXrXrXrXrXrXrXrXrXrXrXrXrXrXrXrXrXrXrXrXrXrXrXrXrXrXrXrXrXrXrXrXrXrXrXrXrXrXrXrXrXrXrXrXrXrXrX",
"rXrXrXrXrXrXrXrXrXrXrXrXrXrXrXrXrXrXrXrXrXrXrXrXrXrXrXrXrXrXrXrXrXrXrXrXrXrXrXrXrXrXrXrXrXrXrXrXrXrXrXrXrXrXrXrXrXrXrXrXrXrXrXrX",
"rXrXrXrXrXrXrXrXrXrXrXrXrXrXrXrXrXrXrXrXrXrXrXrXrXrXrXrXrXrXrXrXrXrXrXrXrXrXrXrXrXrXrXrXrXrXrXrXrXrXrXrXrXrXrXrXrXrXrXrXrXrXrXrX"
};
