/* XPM */
static char *result[] = {
/* columns rows colors chars-per-pixel */
"64 64 226 2 ",
"   c #131A2D",
".  c #141B2D",
"X  c #151B2D",
"o  c #151B2E",
"O  c #161C2E",
"+  c #171C2E",
"@  c #171D2E",
"#  c #161D2F",
"$  c #171D2F",
"%  c #171E2F",
"&  c #182030",
"*  c #1A2132",
"=  c #1C2333",
"-  c #1D2737",
";  c #1F2837",
":  c #232431",
">  c #292833",
",  c #212A38",
"<  c #232D3B",
"1  c #222D3C",
"2  c #302E36",
"3  c #25303D",
"4  c #27313D",
"5  c #27323E",
"6  c #363136",
"7  c #383137",
"8  c #3B3438",
"9  c #453C3D",
"0  c #483D3F",
"q  c #4C3F3D",
"w  c #4C413E",
"e  c #4F433E",
"r  c #53433F",
"t  c #524E3D",
"y  c #223040",
"u  c #263441",
"i  c #2A3742",
"p  c #283746",
"a  c #2C3A44",
"s  c #2C3C49",
"d  c #2E3E48",
"f  c #323D44",
"g  c #3F4342",
"h  c #32414A",
"j  c #32424B",
"k  c #354349",
"l  c #35434A",
"z  c #36464E",
"x  c #324955",
"c  c #354B56",
"v  c #394950",
"b  c #3C4E53",
"n  c #394F57",
"m  c #3C4F54",
"M  c #3B5259",
"N  c #3F5358",
"B  c #3D575E",
"V  c #3C5963",
"C  c #414B4D",
"Z  c #584543",
"A  c #4B524D",
"S  c #425357",
"D  c #485653",
"F  c #43585B",
"G  c #435B5F",
"H  c #455A5E",
"J  c #465C5D",
"K  c #595C50",
"L  c #614E42",
"P  c #6A5244",
"I  c #6D5545",
"U  c #6D5446",
"Y  c #645B4A",
"T  c #735949",
"R  c #5A695F",
"E  c #64694E",
"W  c #75634C",
"Q  c #7D644B",
"!  c #6E6D55",
"~  c #696659",
"^  c #656D5E",
"/  c #495F60",
"(  c #436066",
")  c #456066",
"_  c #4A6264",
"`  c #46646B",
"'  c #4D6768",
"]  c #4C6A6D",
"[  c #506B6B",
"{  c #516E6E",
"}  c #476C72",
"|  c #4F6E70",
" . c #4B6C74",
".. c #4D7379",
"X. c #4F787D",
"o. c #537273",
"O. c #547577",
"+. c #54767E",
"@. c #577979",
"#. c #50787D",
"$. c #597E7F",
"%. c #736E61",
"&. c #637868",
"*. c #737F6F",
"=. c #667771",
"-. c #667D7C",
";. c #85714A",
":. c #8B6850",
">. c #997150",
",. c #9F7F58",
"<. c #A07653",
"1. c #A67A54",
"2. c #AD7E55",
"3. c #817F64",
"4. c #608277",
"5. c #70847A",
"6. c #868050",
"7. c #928354",
"8. c #988B59",
"9. c #B69F4E",
"0. c #AA8257",
"q. c #B38457",
"w. c #B58C5C",
"e. c #A49050",
"r. c #BC925F",
"t. c #A0AC48",
"y. c #ADAB48",
"u. c #BFAF5F",
"i. c #809566",
"p. c #9C9462",
"a. c #92936D",
"s. c #85957E",
"d. c #92A76B",
"f. c #8FA37E",
"g. c #A5A172",
"h. c #A0AC7D",
"j. c #B4A872",
"k. c #BFB670",
"l. c #CCBC54",
"z. c #C29C65",
"x. c #CCA569",
"c. c #BEC565",
"v. c #C0C346",
"b. c #DAD95E",
"n. c #CFC774",
"m. c #D5C77D",
"M. c #DCD77B",
"N. c #E6E178",
"B. c #537E82",
"V. c #547F83",
"C. c #5B8283",
"Z. c #578488",
"A. c #578588",
"S. c #5E838A",
"D. c #598789",
"F. c #5D888A",
"G. c #5E8B8C",
"H. c #5F8D8E",
"J. c #628381",
"K. c #618686",
"L. c #62888E",
"P. c #688C89",
"I. c #718D81",
"U. c #6F9685",
"Y. c #73968A",
"T. c #7A988D",
"R. c #648E90",
"E. c #609191",
"W. c #669393",
"Q. c #609395",
"!. c #619495",
"~. c #639796",
"^. c #6C9897",
"/. c #659A9A",
"(. c #649C9C",
"). c #659C9C",
"_. c #669D9D",
"`. c #679F9E",
"'. c #689B9B",
"]. c #6D989B",
"[. c #6D9E9E",
"{. c #739E9E",
"}. c #7DA297",
"|. c #6AA1A0",
" X c #6CA2A2",
".X c #6CA4A4",
"XX c #6FA6A6",
"oX c #74A3A3",
"OX c #78A6A2",
"+X c #7CABA3",
"@X c #73A8A9",
"#X c #73ABAB",
"$X c #78A9AA",
"%X c #78AFAF",
"&X c #7CADAD",
"*X c #79B0B2",
"=X c #7EB3B4",
"-X c #88A38A",
";X c #82A69E",
":X c #92AD9C",
">X c #A2B486",
",X c #83B0A7",
"<X c #8EBAA6",
"1X c #83B3AF",
"2X c #96BDAE",
"3X c #8EBAB0",
"4X c #81B7B8",
"5X c #84BABB",
"6X c #8ABCB9",
"7X c #92BCB2",
"8X c #ADC295",
"9X c #8EC2BF",
"0X c #9CC3B3",
"qX c #93C3BD",
"wX c #9BC8BF",
"eX c #A1CAB7",
"rX c #A9CDBA",
"tX c #D0D38B",
"yX c #EFEB82",
"uX c #E5E18C",
"iX c #F8F9A0",
"pX c #88BEC0",
"aX c #8BC1C2",
"sX c #8DC4C5",
"dX c #91C7C5",
"fX c None",
/* pixels */
"fXfXfXfXfXfXfXfXfXfXfXfXfXfXfXfXfXfXfXfXfXfXfXfXfXfXfXfXfXfXfXfXfXfXfXfXfXfXfXfXfXfXfXfXfXfXfXfXfXfXfXfXfXfXfXfXfXfXfXfXfXfXfXfX",
"fXfXfXfXfXfXfXfXfXfXfXfXfXfXfXfXfXfXfXfXfXfXfXfXfXfXfXfXfXfXfXfXfXfXfXfXfXfXfXfXfXfXfXfXfXfXfXfXfXfXfXfXfXfXfXfXfXfXfXfXfXfXfXfX",
"fXfXfXfXfXfXfXfXfXfXfXfXfXfXfXfXfXfXfXfXfXfXfXfXfXfXfXfXfXfXfXfXfXfXfXfXfXfXfXfXfXfXfXfXfXfXfXfXfXfXfXfXfXfXfXfXfXfXfXfXfXfXfXfX",
"fXfXfXfXfXfXfXfXfXfXfXfXfXfXfXfXfXfXfXfXfXfXfXfXfXfXfXfXfXfXfXfXfXfXfXfXfXfXfXfXfXfXfXfXfXfXfXfXfXfXfXfXfXfXfXfXfXfXfXfXfXfXfXfX",
"fXfXfXfXfXfXfXfXfXfXfXfXfXfXfXfXfXfXfXfXfXfXfXfXfXfXfXfXfXfXfXfXfXfXfXfXfXfXfXfXfXfXfXfXfXfXfXfXfXfXfXfXfXfXfXfXfXfXfXfXfXfXfXfX",
"fXfXfXfXfXfXfXfXfXfXfXfXfXfXfXfXfXfXfXfXfXfXfXfXfXfXfXfXfXfXfXfXfXfXfXfXfXfXfXfXfXfXfXfXfXfXfXfXfXfXfXfXfXfXfXfXfXfXfXfXfXfXfXfX",
"fXfXfXfXfXfXfXfXfXfXfXfXfXfXfXfXfXfXfXfXfXfXfXfXfXfXfXfXfXfXfXfXfXfXfXfXfXfXfXfXfXfXfXfXfXfXfXfXfXfXfXfXfXfXfXfXfXfXfXfXfXfXfXfX",
"fXfXfXfXfXfXfXfXfXfXfXfXfXfXfXfXfXfXfXfXfXfXfXfXfXfXfXfXfXfXfXfXfXfXfXfXfXfXfXfXfXfXfXfXfXfXfXfXfXfXfXfXfXfXfXfXfXfXfXfXfXfXfXfX",
"fXfXfXfXfXfXfXfXfXfXfXfXfXfXfXfXfXfXfXfXfXfXfXfXfXfXfXfXfXfXfXfXfXfXfXfXfXfXfXfXfXfXfXfXfXfXfXfXfXfXfXfXfXfXfXfXfXfXfXfXfXfXfXfX",
"fXfXfXfXfXfXfXfXfXfXfXfXfXfXfXfXfXfXfXfXfXfXfXfXfXfXfXfXfXfXfXfXfXfXfXfXfXfXfXfXfXfXfXfXfXfXfXfXfXfXfXfXfXfXfXfXfXfXfXfXfXfXfXfX",
"fXfXfXfXfXfXfXfXfXfXfXfXfXfXfXfXfXfXfXfXfXfXfXfXfXfXfXfXfXfXfXfXfXfXfXfXfXfXfXfXfXfXfXfXfXfXfXfXfXfXfXfXfXfXfXfXfXfXfXfXfXfXfXfX",
"fXfXfXfXfXfXfXfXfXfXfXfXfXfXfXfXfXfXfXfXfXfXfXfXfXfXfXfXfXfXfXfXfXfXfXfXfXfXfXfXfXfXfXfXfXfXfXfXfXfXfXfXfXfXfXfXfXfXfXfXfXfXfXfX",
"fXfXfXfXfXfXfXfXfXfXfXfXfXfXfXfXfXfXfXfXfXfXfXfXfX1 u V M j B +.O.] n a k S J fXfXfXfXfXfXfXfXfXfXfXfXfXfXfXfXfXfXfXfXfXfXfXfXfX",
"fXfXfXfXfXfXfXfXfXfXfXfXfXfXfXfXfXfXfXfXfXfXfXp S. .V.#X@X/.G./._._./.C.D.3.>X+.p fXfXfXfXfXfXfXfXfXfXfXfXfXfXfXfXfXfXfXfXfXfXfX",
"fXfXfXfXfXfXfXfXfXfXfXfXfXfXfXfXfXfXfXfXfX% B [.aX'.[.XX.X X/./. X@X#X`.@XJ.W.pX[.B % fXfXfXfXfXfXfXfXfXfXfXfXfXfXfXfXfXfXfXfXfX",
"fXfXfXfXfXfXfXfXfXfXfXfXfXfXfXfXfXfXfX< = 4 @.@X9X;Xg.:X5X%XH.^.5XsXpX5X].O.XX9X@X@.4 = < fXfXfXfXfXfXfXfXfXfXfXfXfXfXfXfXfXfXfX",
"fXfXfXfXfXfXfXfXfXfXfXfXfXfXfXfXfX- s D.B h { W.2X8Xn.*.'.|./.E.[.4X&X$X` C.=X3XW.{ h B D.s - fXfXfXfXfXfXfXfXfXfXfXfXfXfXfXfXfX",
"fXfXfXfXfXfXfXfXfXfXfXfXfXfXfXfXx ..) T.~ N ) C._.R.R O.@X X|.XX X'.W.=XP.*.s.'.D.N v _ /.) ..x fXfXfXfXfXfXfXfXfXfXfXfXfXfXfXfX",
"fXfXfXfXfXfXfXfXfXfXfXfXfXfXfX% c ~.[ >Xk.&.@X=X[.' G [ oX4X=X{.[ o.$X*X@.9.uX:X=X&X$.C.!.[ ~.c % fXfXfXfXfXfXfXfXfXfXfXfXfXfXfX",
"fXfXfXfXfXfXfXfXfXfXfXfXfXfX# v F | b ^ Y / oXwX6XL.i ' '.%X4X3XT.O.|._.' e.yX>XpX&X{ G _ b | F v # fXfXfXfXfXfXfXfXfXfXfXfXfXfX",
"fXfXfXfXfXfXfXfXfXfXfXfXfXfX3 _ N C ! K d O.'.,X$X+.h { ~._.`.`./.] ~.`.#.g ! Y.#X'.@.h f l v N _ 3 fXfXfXfXfXfXfXfXfXfXfXfXfXfX",
"fXfXfXfXfXfXfXfXfXfXfXfX- j v h C.}.tX7.A =.!.D.'.$X$XR.$.G./.`.G.N F.XXW.[.{.R.G.E.| G B W.&X+.d v j 1 fXfXfXfXfXfXfXfXfXfXfXfX",
"fXfXfXfXfXfXfXfXfXfXfXfXm ' l v &X1Xf.! j.u.~ n K.5XdX9X6X^.) $.[ i ] $XqXeX7XR.n d n D.*XsXdX$Xz i ' m fXfXfXfXfXfXfXfXfXfXfXfX",
"fXfXfXfXfXfXfXfXfXfXfXk / b z [ '.4X7Xc.iXM.Y / @.'.,X2XrX:Xb | | +.L.K.P.[.`.G.' ^ 3.;XpX5X%X'.{ l v / k fXfXfXfXfXfXfXfXfXfXfX",
"fXfXfXfXfXfXfXfXfXfX# 5 f , z [ G.`.[.d.y.e.g / $.!.)._.|.O.n oX4XdXwX^.] /.Y.5.D v.N.8X[. X`.E.[ z 9 p.f # fXfXfXfXfXfXfXfXfXfX",
"fXfXfXfXfXfXfXfXfXfX3 G l d ) F.$...!.!.N / i F H.`._._./.o.b C.|.XX X..) V.6.k.t l.yXb.4.!...$.F.) C ! / 3 fXfXfXfXfXfXfXfXfXfX",
"fXfXfXfXfXfXfXfXfXu v &.D N P.sX5XL.].$X@.v ,  .F.E./.).C.8.a.K.!..X.X+.R.$X*.>X[ Y e.i.{.].L.5XsXP.b b [ v * fXfXfXfXfXfXfXfXfX",
"fXfXfXfXfXfXfXfXfXM %.n.8.{ $XsXsXsXsXsX=X_ z ].pX$X@X XC.a.g._ N ].4X7X6X*XXX*X].z _ =XsXsXsXsXdX&X] z ' N m fXfXfXfXfXfXfXfXfX",
"fXfXfXfXfXfXfXfXfXH E l.;...XX%X4XwXrX7XK._ h { [.6XrXrXeX1X[.| h @.'.|.`.)._.H.{ h _ K.7XrXrX0X1XXXG.i 5 l ( fXfXfXfXfXfXfXfXfX",
"fXfXfXfXfXfXfXfX- v f A F V.).).|.OX+XW.[ / i _ C.'.+X+X+X X!.[ C ' F.`._.`._.D.' d / [ W.+X+XY.s.^.D.n d f z & fXfXfXfXfXfXfXfX",
"fXfXfXfXfXfXfXfX< l 5 ] H.R.XX|._.(._.!.' d 8 Y =.P.I.T.T.5.^ ,.0.Y ^ =.5.J.{ R ~ w d ' !.^.K.E M.-XH.H.[ g C < fXfXfXfXfXfXfXfX",
"fXfXfXfXfXfXfX# 4 i h [ o.{.pXpX4XXX).H.G 5 L w.w.W W r.z.Q ;.x.z.Q Q r.0.W W r.w.Y 5 G -.g.k.! d.}.{.o.K u.3.4 X fXfXfXfXfXfXfX",
"fXfXfXfXfXfXfXX 5 B K.o.*.p.a.].*XXXO.' [ G w 1.1.P T 2.q.T I 2.<.I I q.1.I P 2.<.w G [ A u.iXM.U.C.{ [ ' f.R 5 % fXfXfXfXfXfXfX",
"fXfXfXfXfXfXfX$ G [.sX,XtXyXv.A s.I.G N / i 9 1.<.P I q.1.P I 2.2.I I 2.>.I P 2.1.9 i G z 7.u.t.C _ @.^.4XaX'.G @ fXfXfXfXfXfXfX",
"fXfXfXfXfXfXfX3 @..X5XI.v.b.9.t k.6. .oXP.N , 7 2 : : 8 2 : : 7 8 : : 8 > : > 8 8 , N P.;XOX,X{.d $.6XwXwX5X.X@.3 fXfXfXfXfXfXfX",
"fXfXfXfXfXfXfXs E._.`.E.U.a.A z &.4.3X2XP.[ f Z 9 P 9   o o o     o o     8 r 9 Z f [ P.2XeX4X].b o.oX+XOX|._.E.s fXfXfXfXfXfXfX",
"fXfXfXfXfXfXX i E. X_._.(.W.^ v E.`.|.`./.O.d I :.<.T + o o o o o o o o + I Q :.T h O./._.|.'.P.C z V.(.(._. XE.i X fXfXfXfXfXfX",
"fXfXfXfXfXfX& v G.4X%XXX@X:Xm.t ..`.)._.).@.z I 1.2.:.: o o o o o o o o : >.2.1.I C *.^._.(.I.u.j.-.R.@XXX%X4XG.v & fXfXfXfXfXfX",
"fXfXfXfXfXfX; { /.#X9XqXsXeXh.g .. X.X[.@.F , r 1.<.<.> o o o o o o o o > 0.w.2.r t m.s._..X/ 9.c.}.dXsXqX9X#X/.{ ; fXfXfXfXfXfX",
"fXfXfXfXfXX i @._.`.OXT.;X&XG.S.5XpXaXpX$XR.` 9 <.,.0.2 o o o o o o o o > q.,.q.9 D h.<XpXaX].5.I.G.,X;XT.OX`._.@.i X fXfXfXfXfX",
"fXfXfXfXfXfXa a ( #./.(./.~.K.2XdXsXaXaXaX4X..2 >.z.r.w   o o o o o o   9 w.1.>.2  .%XaXaXaXdXdX2XK.~./.(./.#.( a a fXfXfXfXfXfX",
"fXfXfXfXfXfXfXfX% - X._.). .N T.2X3XOX^.^.E.{ z Q r.q.w o O O + o + +   w q.q.Q z { W.^.^.OX3X2XT.N  .)._.X.- % fXfXfXfXfXfXfXfX",
"fXfXfXfXfXfXfXfXfXfXfXJ S y < | _._._._.E. .) N T q.1.w . * % X * & =   w 2.2.L v m ..E._._._.`.| 4 p S J fXfXfXfXfXfXfXfXfXfXfX",
"fXfXfXfXfXfXfXfXfXfXfXfXfXfXfXu } Z.Q.A.V $ X - 0 >.>.P o @ # fXfX$ @ . L >.<.e * % & x A.Q.B.} p $ fXfXfXfXfXfXfXfXfXfXfXfXfXfX",
"fXfXfXfXfXfXfXfXfXfXfXfXfXfXfXfXfXfXfXfXfXfXfX# = q U U = % fXfXfXfX% @ 6 6 U 6 fXfXfXfXfXfXfXfXfXfXfXfXfXfXfXfXfXfXfXfXfXfXfXfX",
"fXfXfXfXfXfXfXfXfXfXfXfXfXfXfXfXfXfXfXfXfXfXfXfXfXfXfXfXfXfXfXfXfXfXfXfXfXfXfXfXfXfXfXfXfXfXfXfXfXfXfXfXfXfXfXfXfXfXfXfXfXfXfXfX",
"fXfXfXfXfXfXfXfXfXfXfXfXfXfXfXfXfXfXfXfXfXfXfXfXfXfXfXfXfXfXfXfXfXfXfXfXfXfXfXfXfXfXfXfXfXfXfXfXfXfXfXfXfXfXfXfXfXfXfXfXfXfXfXfX",
"fXfXfXfXfXfXfXfXfXfXfXfXfXfXfXfXfXfXfXfXfXfXfXfXfXfXfXfXfXfXfXfXfXfXfXfXfXfXfXfXfXfXfXfXfXfXfXfXfXfXfXfXfXfXfXfXfXfXfXfXfXfXfXfX",
"fXfXfXfXfXfXfXfXfXfXfXfXfXfXfXfXfXfXfXfXfXfXfXfXfXfXfXfXfXfXfXfXfXfXfXfXfXfXfXfXfXfXfXfXfXfXfXfXfXfXfXfXfXfXfXfXfXfXfXfXfXfXfXfX",
"fXfXfXfXfXfXfXfXfXfXfXfXfXfXfXfXfXfXfXfXfXfXfXfXfXfXfXfXfXfXfXfXfXfXfXfXfXfXfXfXfXfXfXfXfXfXfXfXfXfXfXfXfXfXfXfXfXfXfXfXfXfXfXfX",
"fXfXfXfXfXfXfXfXfXfXfXfXfXfXfXfXfXfXfXfXfXfXfXfXfXfXfXfXfXfXfXfXfXfXfXfXfXfXfXfXfXfXfXfXfXfXfXfXfXfXfXfXfXfXfXfXfXfXfXfXfXfXfXfX",
"fXfXfXfXfXfXfXfXfXfXfXfXfXfXfXfXfXfXfXfXfXfXfXfXfXfXfXfXfXfXfXfXfXfXfXfXfXfXfXfXfXfXfXfXfXfXfXfXfXfXfXfXfXfXfXfXfXfXfXfXfXfXfXfX",
"fXfXfXfXfXfXfXfXfXfXfXfXfXfXfXfXfXfXfXfXfXfXfXfXfXfXfXfXfXfXfXfXfXfXfXfXfXfXfXfXfXfXfXfXfXfXfXfXfXfXfXfXfXfXfXfXfXfXfXfXfXfXfXfX",
"fXfXfXfXfXfXfXfXfXfXfXfXfXfXfXfXfXfXfXfXfXfXfXfXfXfXfXfXfXfXfXfXfXfXfXfXfXfXfXfXfXfXfXfXfXfXfXfXfXfXfXfXfXfXfXfXfXfXfXfXfXfXfXfX",
"fXfXfXfXfXfXfXfXfXfXfXfXfXfXfXfXfXfXfXfXfXfXfXfXfXfXfXfXfXfXfXfXfXfXfXfXfXfXfXfXfXfXfXfXfXfXfXfXfXfXfXfXfXfXfXfXfXfXfXfXfXfXfXfX",
"fXfXfXfXfXfXfXfXfXfXfXfXfXfXfXfXfXfXfXfXfXfXfXfXfXfXfXfXfXfXfXfXfXfXfXfXfXfXfXfXfXfXfXfXfXfXfXfXfXfXfXfXfXfXfXfXfXfXfXfXfXfXfXfX",
"fXfXfXfXfXfXfXfXfXfXfXfXfXfXfXfXfXfXfXfXfXfXfXfXfXfXfXfXfXfXfXfXfXfXfXfXfXfXfXfXfXfXfXfXfXfXfXfXfXfXfXfXfXfXfXfXfXfXfXfXfXfXfXfX",
"fXfXfXfXfXfXfXfXfXfXfXfXfXfXfXfXfXfXfXfXfXfXfXfXfXfXfXfXfXfXfXfXfXfXfXfXfXfXfXfXfXfXfXfXfXfXfXfXfXfXfXfXfXfXfXfXfXfXfXfXfXfXfXfX",
"fXfXfXfXfXfXfXfXfXfXfXfXfXfXfXfXfXfXfXfXfXfXfXfXfXfXfXfXfXfXfXfXfXfXfXfXfXfXfXfXfXfXfXfXfXfXfXfXfXfXfXfXfXfXfXfXfXfXfXfXfXfXfXfX",
"fXfXfXfXfXfXfXfXfXfXfXfXfXfXfXfXfXfXfXfXfXfXfXfXfXfXfXfXfXfXfXfXfXfXfXfXfXfXfXfXfXfXfXfXfXfXfXfXfXfXfXfXfXfXfXfXfXfXfXfXfXfXfXfX",
"fXfXfXfXfXfXfXfXfXfXfXfXfXfXfXfXfXfXfXfXfXfXfXfXfXfXfXfXfXfXfXfXfXfXfXfXfXfXfXfXfXfXfXfXfXfXfXfXfXfXfXfXfXfXfXfXfXfXfXfXfXfXfXfX",
"fXfXfXfXfXfXfXfXfXfXfXfXfXfXfXfXfXfXfXfXfXfXfXfXfXfXfXfXfXfXfXfXfXfXfXfXfXfXfXfXfXfXfXfXfXfXfXfXfXfXfXfXfXfXfXfXfXfXfXfXfXfXfXfX",
"fXfXfXfXfXfXfXfXfXfXfXfXfXfXfXfXfXfXfXfXfXfXfXfXfXfXfXfXfXfXfXfXfXfXfXfXfXfXfXfXfXfXfXfXfXfXfXfXfXfXfXfXfXfXfXfXfXfXfXfXfXfXfXfX",
"fXfXfXfXfXfXfXfXfXfXfXfXfXfXfXfXfXfXfXfXfXfXfXfXfXfXfXfXfXfXfXfXfXfXfXfXfXfXfXfXfXfXfXfXfXfXfXfXfXfXfXfXfXfXfXfXfXfXfXfXfXfXfXfX"
};
